<?xml version="1.0" encoding="UTF-8"?>
<svg version="1.1" xmlns="http://www.w3.org/2000/svg" width="1080" height="1080">
<path d="M0 0 C356.4 0 712.8 0 1080 0 C1080 356.4 1080 712.8 1080 1080 C723.6 1080 367.2 1080 0 1080 C0 723.6 0 367.2 0 0 Z " fill="transparent" transform="translate(0,0)"/>
<path d="M0 0 C1.56909622 -0.00464516 1.56909622 -0.00464516 3.16989136 -0.00938416 C4.88621262 -0.00643089 4.88621262 -0.00643089 6.63720703 -0.00341797 C7.82549103 -0.0048732 9.01377502 -0.00632843 10.23806763 -0.00782776 C14.12374993 -0.01008359 18.00934589 -0.00378389 21.89501953 0.00439453 C23.86535156 0.00721939 23.86535156 0.00721939 25.87548828 0.01010132 C56.78855989 0.06237688 56.78855989 0.06237688 71.79400635 0.39385986 C73.25888253 0.42547012 74.72386017 0.45272894 76.18890381 0.47528076 C90.55694589 0.71208668 101.11804962 3.33694123 111.64501953 13.44189453 C114.62516422 16.57104646 117.26274095 19.90316509 119.87158203 23.34423828 C122.68748731 26.99467549 125.60382587 30.5588897 128.52001953 34.12939453 C132.43447789 38.92940988 136.30593082 43.75107921 140.08251953 48.66064453 C142.84999999 52.18695028 145.68745378 55.65528341 148.52001953 59.12939453 C152.45393421 63.95529828 156.353727 68.7977908 160.15283203 73.73095703 C164.24747057 78.99059733 168.44106941 84.17282178 172.61132812 89.37255859 C174.49953817 91.72742159 176.38489588 94.08456042 178.27001953 96.44189453 C178.88619141 97.20888672 179.50236328 97.97587891 180.13720703 98.76611328 C181.50904606 100.48802742 182.86652241 102.22141337 184.21533203 103.96142578 C185.29427734 105.34394531 185.29427734 105.34394531 186.39501953 106.75439453 C187.04212891 107.59228516 187.68923828 108.43017578 188.35595703 109.29345703 C188.90509766 109.89931641 189.45423828 110.50517578 190.02001953 111.12939453 C190.68001953 111.12939453 191.34001953 111.12939453 192.02001953 111.12939453 C193.01001953 109.64439453 193.01001953 109.64439453 194.02001953 108.12939453 C195.34001953 108.45939453 196.66001953 108.78939453 198.02001953 109.12939453 C198.08882324 109.67426514 198.15762695 110.21913574 198.22851562 110.78051758 C201.09119869 132.23732573 207.22816027 153.67071271 217.74267578 172.69580078 C218.8890609 174.8798923 219.56077194 176.71976209 220.02001953 179.12939453 C220.68001953 179.12939453 221.34001953 179.12939453 222.02001953 179.12939453 C223.46533203 181.18408203 223.46533203 181.18408203 225.14501953 184.00439453 C234.23195971 198.62576741 245.9386138 210.28137957 260.02001953 220.12939453 C260.55900879 220.50789551 261.09799805 220.88639648 261.65332031 221.27636719 C268.32054969 226.30859415 268.32054969 226.30859415 276.02001953 229.12939453 C276.02001953 229.78939453 276.02001953 230.44939453 276.02001953 231.12939453 C276.57689453 231.29955078 277.13376953 231.46970703 277.70751953 231.64501953 C280.1637324 232.42503308 282.590894 233.2689206 285.02001953 234.12939453 C285.67744141 234.33822266 286.33486328 234.54705078 287.01220703 234.76220703 C294.56511484 237.73949434 299.16828736 244.94121698 304.02001953 251.12939453 C304.91708377 252.26356542 305.81421809 253.39768088 306.71142578 254.53173828 C308.52384864 256.83046927 310.3262792 259.13672019 312.12548828 261.44580078 C315.2686125 265.46521629 318.48435863 269.42405651 321.70751953 273.37939453 C322.25480713 274.05220459 322.80209473 274.72501465 323.3659668 275.41821289 C325.77787327 278.38214149 328.19416487 281.3422188 330.62158203 284.29345703 C331.35119141 285.18806641 332.08080078 286.08267578 332.83251953 287.00439453 C333.45771484 287.76494141 334.08291016 288.52548828 334.72705078 289.30908203 C336.02001953 291.12939453 336.02001953 291.12939453 336.02001953 293.12939453 C337.01001953 293.45939453 338.00001953 293.78939453 339.02001953 294.12939453 C340.46528689 295.86487622 341.82874174 297.66915416 343.14501953 299.50439453 C343.95295861 300.61259459 344.76290054 301.71933689 345.57470703 302.82470703 C346.18910645 303.66243652 346.18910645 303.66243652 346.81591797 304.51708984 C350.05167669 308.84980489 353.5765824 312.96187016 357.02001953 317.12939453 C359.15015403 319.72939105 361.2736835 322.33471612 363.39501953 324.94189453 C364.22767334 325.96488647 364.22767334 325.96488647 365.07714844 327.00854492 C369.10826601 331.97438889 373.06061292 336.99710293 376.98950195 342.04394531 C380.13075701 346.05627583 383.38816313 349.9511987 386.70751953 353.81689453 C401.36354723 370.90519917 401.36354723 370.90519917 401.23486328 379.81298828 C400.7992158 384.51006023 398.91695163 387.29973234 395.52001953 390.44189453 C391.00974429 393.48633032 386.85594004 393.28330222 381.6081543 393.29052734 C380.74917038 393.29549225 379.89018646 393.30045715 379.00517273 393.30557251 C376.15724894 393.3201997 373.309381 393.32699984 370.46142578 393.33251953 C368.47663878 393.33827397 366.4918518 393.34403167 364.50706482 393.34979248 C360.33828472 393.36030642 356.16952391 393.36614538 352.00073242 393.36962891 C346.68497102 393.37509062 341.36946874 393.399067 336.05378819 393.42760086 C331.94855536 393.44632788 327.84338341 393.45143834 323.7381115 393.45296478 C321.78029921 393.45597314 319.82248752 393.46393954 317.86471748 393.47714996 C302.61059906 393.57266587 286.34650562 393.26669146 274.52001953 382.12939453 C270.54636389 377.83859267 267.0759589 373.11634378 263.55517578 368.45361328 C261.29933289 365.47460135 258.96197703 362.57363465 256.58251953 359.69189453 C253.18295869 355.57411662 249.86662113 351.40154691 246.58251953 347.19189453 C243.11495829 342.74979782 239.58643841 338.37836869 235.95751953 334.06689453 C232.07025223 329.4415385 228.35655785 324.71696848 224.69726562 319.91210938 C221.35267535 315.53076157 217.88233151 311.26777277 214.37548828 307.01611328 C207.43675627 298.51242679 200.74354903 289.803436 194.02001953 281.12939453 C191.04436628 282.44119884 189.23760754 283.72971612 187.20751953 286.26220703 C186.69543945 286.89553955 186.18335938 287.52887207 185.65576172 288.18139648 C185.1159668 288.86548584 184.57617188 289.5495752 184.02001953 290.25439453 C183.45186523 290.96362061 182.88371094 291.67284668 182.29833984 292.40356445 C177.83943345 298.00437084 173.53515739 303.71606466 169.26904297 309.46435547 C165.02720483 315.16811787 160.55761862 320.6585911 156.02001953 326.12939453 C152.03465964 331.05107391 148.10547083 336.0160184 144.20288086 341.00341797 C139.14333315 347.46824537 134.00163354 353.85845489 128.80444336 360.21313477 C124.49121396 365.50450265 120.33339281 370.89802847 116.23876953 376.35986328 C108.04159364 386.5919015 98.72735918 390.86919778 86.02001953 393.12939453 C84.26329577 393.23868647 82.50351121 393.30438762 80.74365234 393.3347168 C79.70827835 393.35463684 78.67290436 393.37455688 77.6061554 393.39508057 C76.48976181 393.41181824 75.37336823 393.42855591 74.22314453 393.44580078 C73.05305344 393.46680847 71.88296234 393.48781616 70.67741394 393.50946045 C66.87501793 393.57585426 63.07256582 393.63479029 59.27001953 393.69189453 C57.34018723 393.72166885 57.34018723 393.72166885 55.37136841 393.75204468 C48.93482516 393.85046492 42.49823433 393.94304293 36.06152344 394.02978516 C30.91880438 394.09987979 25.77675389 394.18706673 20.634552 394.28761292 C17.58692087 394.34355211 14.53929544 394.38288961 11.49133301 394.41549683 C9.51597942 394.44113576 7.54090882 394.48626275 5.56591797 394.53198242 C-1.43771453 394.57774206 -6.08970622 394.05162421 -11.97998047 390.12939453 C-15.07186351 386.79473083 -16.32974875 382.52087174 -16.35498047 378.00439453 C-15.09613954 370.72555194 -9.44421126 364.77352064 -4.97998047 359.12939453 C-4.4949707 358.51225586 -4.00996094 357.89511719 -3.51025391 357.25927734 C-1.02456097 354.1056881 1.4845327 350.97207307 4.01220703 347.85205078 C6.90316088 344.28344247 9.75007971 340.68204219 12.58251953 337.06689453 C13.03232178 336.49326172 13.48212402 335.91962891 13.94555664 335.32861328 C14.85095159 334.17366163 15.75614414 333.01855128 16.66113281 331.86328125 C18.94455259 328.94972623 21.23254512 326.03976644 23.52001953 323.12939453 C24.43149222 321.96924956 25.34295054 320.80909329 26.25439453 319.64892578 C28.13920696 317.25001266 30.02470972 314.85164412 31.91064453 312.45361328 C32.86378865 311.24138873 33.81691387 310.02914932 34.77001953 308.81689453 C35.23263184 308.2286792 35.69524414 307.64046387 36.171875 307.03442383 C38.6766372 303.84732364 41.16743015 300.65020152 43.64501953 297.44189453 C46.08904102 294.28887625 48.60158322 291.2027134 51.14501953 288.12939453 C54.96814092 283.48333006 58.63379163 278.73522692 62.27001953 273.94189453 C68.22546838 266.09738467 74.39049244 258.44261241 80.63183594 250.82470703 C86.56365657 243.58049977 92.27816455 236.18635806 97.94824219 228.73706055 C101.70269542 223.81741346 105.52017027 218.95466692 109.39501953 214.12939453 C110.13643188 213.20114868 110.13643188 213.20114868 110.89282227 212.25415039 C113.01813812 209.59759543 115.15855498 206.96611235 117.35986328 204.37158203 C118.01083984 203.59041016 118.66181641 202.80923828 119.33251953 202.00439453 C119.88552734 201.36244141 120.43853516 200.72048828 121.00830078 200.05908203 C122.21897146 198.13524125 122.21897146 198.13524125 121.94189453 195.71142578 C120.79636238 192.50296497 119.17977344 190.52245353 116.95751953 187.94189453 C116.13767578 186.97380859 115.31783203 186.00572266 114.47314453 185.00830078 C113.66361328 184.05826172 112.85408203 183.10822266 112.02001953 182.12939453 C110.74177378 180.55203927 109.47062934 178.96889616 108.20751953 177.37939453 C105.88780845 174.47055047 103.56681789 171.56281864 101.23876953 168.66064453 C96.23844994 162.42452934 91.25869732 156.17429322 86.33251953 149.87939453 C82.30702755 144.73575021 78.20260654 139.66457945 74.05126953 134.62158203 C72.25604444 132.41897894 70.50322138 130.19335771 68.77001953 127.94189453 C65.44546463 123.63314738 62.01879785 119.41156046 58.58251953 115.19189453 C58.01267334 114.49193359 57.44282715 113.79197266 56.85571289 113.07080078 C56.29634033 112.38373047 55.73696777 111.69666016 55.16064453 110.98876953 C49.26317027 103.744904 43.47373693 96.43220077 37.79833984 89.01318359 C34.41170373 84.60201891 30.90767344 80.29750429 27.36767578 76.00830078 C24.70888591 72.74785464 22.1106931 69.44400524 19.52001953 66.12939453 C16.23193177 61.9237537 12.91400111 57.75065788 9.52001953 53.62939453 C-15.97524766 22.6154738 -15.97524766 22.6154738 -14.97998047 10.12939453 C-12.29784034 3.49462684 -6.95865836 0.00603513 0 0 Z " fill="#172A39" transform="translate(308.97998046875,342.87060546875)"/>
<path d="M0 0 C1.5001062 0.0012085 1.5001062 0.0012085 3.03051758 0.00244141 C9.88755035 0.05762226 16.67508304 0.39985592 23.5 1.0625 C24.33039795 1.14089111 25.1607959 1.21928223 26.01635742 1.30004883 C29.81810161 1.7139116 33.01993979 2.07529157 36.3125 4.1875 C36.3125 4.8475 36.3125 5.5075 36.3125 6.1875 C37.1478125 6.29964844 37.983125 6.41179687 38.84375 6.52734375 C56.30311287 9.8501279 71.39721914 19.8066983 84.83349609 30.96679688 C86.06559355 31.98371455 87.32111361 32.97217014 88.58203125 33.953125 C110.2421517 51.42238711 124.53040172 83.15392328 128.3125 110.1875 C129.94076801 136.74681852 126.58366651 160.87899803 115.3125 185.1875 C115.02648926 185.81188965 114.74047852 186.4362793 114.44580078 187.07958984 C110.04642314 196.47527204 103.92431367 204.28883959 97.3125 212.1875 C96.23355469 213.51587891 96.23355469 213.51587891 95.1328125 214.87109375 C81.84934098 230.53556488 63.89519775 241.41383092 44.6875 248.25 C42.03378434 249.19666934 39.42148092 250.13981009 36.83984375 251.26953125 C34.00349166 252.29973641 31.50473875 252.59528997 28.5 252.8125 C27.03626953 252.92464844 27.03626953 252.92464844 25.54296875 253.0390625 C24.80691406 253.08804688 24.07085938 253.13703125 23.3125 253.1875 C23.3125 253.8475 23.3125 254.5075 23.3125 255.1875 C19.52761054 256.39123476 15.75943881 256.36657643 11.828125 256.390625 C11.09487 256.39632507 10.36161499 256.40202515 9.60614014 256.40789795 C8.04945304 256.41733591 6.49274608 256.42387715 4.93603516 256.42773438 C2.61191998 256.43729667 0.28874606 256.4682676 -2.03515625 256.5 C-13.16538168 256.57772587 -24.04346694 255.73551102 -34.6875 252.1875 C-34.6875 251.5275 -34.6875 250.8675 -34.6875 250.1875 C-35.9559375 250.0328125 -35.9559375 250.0328125 -37.25 249.875 C-41.0373044 249.11753912 -44.14497428 247.71445074 -47.6875 246.1875 C-49.09847728 245.83085076 -50.51552711 245.49741717 -51.9375 245.1875 C-55.80827458 244.15529345 -56.10532035 243.78885425 -58.6875 241.1875 C-61.18870251 239.87519145 -63.73798174 238.72723814 -66.3125 237.56640625 C-68.9015434 236.06322809 -69.97447668 234.5982435 -71.6875 232.1875 C-73.37617597 231.21326386 -75.0675816 230.24264646 -76.78515625 229.3203125 C-80.09357932 227.35020431 -82.86316557 224.78645113 -85.6875 222.1875 C-86.43 221.506875 -87.1725 220.82625 -87.9375 220.125 C-89.6875 218.1875 -89.6875 218.1875 -91.04296875 215.84765625 C-93.23563157 212.30085488 -95.99227246 209.48896972 -98.84765625 206.46875 C-100.6875 204.1875 -100.6875 204.1875 -101.74609375 201.46875 C-102.05675781 200.7159375 -102.36742187 199.963125 -102.6875 199.1875 C-103.6775 198.8575 -104.6675 198.5275 -105.6875 198.1875 C-107.13550571 195.74343287 -108.40288901 193.36637635 -109.625 190.8125 C-109.97691406 190.09167236 -110.32882812 189.37084473 -110.69140625 188.62817383 C-117.6875 174.07079264 -117.6875 174.07079264 -117.6875 168.1875 C-118.3475 168.1875 -119.0075 168.1875 -119.6875 168.1875 C-120.1487271 165.7921939 -120.60647976 163.39629868 -121.0625 161 C-121.18882812 160.34580078 -121.31515625 159.69160156 -121.4453125 159.01757812 C-121.87638913 156.7436489 -122.28543616 154.46674495 -122.6875 152.1875 C-122.86321533 151.20434814 -123.03893066 150.22119629 -123.2199707 149.20825195 C-127.60095069 123.07439343 -124.4934045 97.34823117 -113.6875 73.1875 C-113.41099609 72.56858887 -113.13449219 71.94967773 -112.84960938 71.31201172 C-99.54494754 42.42768097 -72.74920083 19.37629949 -43.1875 8.375 C-29.0687091 3.31292488 -15.05661761 -0.01264306 0 0 Z " fill="#219972" transform="translate(655.6875,314.8125)"/>
<path d="M0 0 C1.56909622 -0.00464516 1.56909622 -0.00464516 3.16989136 -0.00938416 C4.88621262 -0.00643089 4.88621262 -0.00643089 6.63720703 -0.00341797 C7.82549103 -0.0048732 9.01377502 -0.00632843 10.23806763 -0.00782776 C14.12374993 -0.01008359 18.00934589 -0.00378389 21.89501953 0.00439453 C23.86535156 0.00721939 23.86535156 0.00721939 25.87548828 0.01010132 C56.78855989 0.06237688 56.78855989 0.06237688 71.79400635 0.39385986 C73.25888253 0.42547012 74.72386017 0.45272894 76.18890381 0.47528076 C90.55694589 0.71208668 101.11804962 3.33694123 111.64501953 13.44189453 C114.62516422 16.57104646 117.26274095 19.90316509 119.87158203 23.34423828 C122.68748731 26.99467549 125.60382587 30.5588897 128.52001953 34.12939453 C132.43447789 38.92940988 136.30593082 43.75107921 140.08251953 48.66064453 C142.84999999 52.18695028 145.68745378 55.65528341 148.52001953 59.12939453 C152.45393421 63.95529828 156.353727 68.7977908 160.15283203 73.73095703 C164.24747057 78.99059733 168.44106941 84.17282178 172.61132812 89.37255859 C174.49953817 91.72742159 176.38489588 94.08456042 178.27001953 96.44189453 C178.88619141 97.21146484 179.50236328 97.98103516 180.13720703 98.77392578 C181.49907097 100.47766843 182.85808673 102.18368903 184.21533203 103.89111328 C184.93462891 104.79474609 185.65392578 105.69837891 186.39501953 106.62939453 C187.04212891 107.44408203 187.68923828 108.25876953 188.35595703 109.09814453 C190.00930054 111.18459474 190.00930054 111.18459474 192.02001953 113.12939453 C191.36001953 113.12939453 190.70001953 113.12939453 190.02001953 113.12939453 C189.74472412 113.71930176 189.46942871 114.30920898 189.18579102 114.91699219 C188.07175709 117.03120693 186.88809769 118.69255795 185.36767578 120.52783203 C184.84399414 121.16503174 184.3203125 121.80223145 183.78076172 122.45874023 C183.2203418 123.13380615 182.65992188 123.80887207 182.08251953 124.50439453 C180.90057151 125.94240938 179.71959866 127.38122625 178.53955078 128.82080078 C177.9473877 129.54283691 177.35522461 130.26487305 176.74511719 131.00878906 C174.21281036 134.12167005 171.73787845 137.27783683 169.27001953 140.44189453 C166.06592095 144.5440118 162.82887975 148.61065473 159.52001953 152.62939453 C155.71879417 157.24757952 152.01227411 161.93227781 148.32788086 166.64355469 C144.31749798 171.76672975 140.25200149 176.84431862 136.17163086 181.91186523 C133.49784257 185.24293216 130.90261684 188.60750846 128.39501953 192.06689453 C127.61126953 193.07751953 126.82751953 194.08814453 126.02001953 195.12939453 C125.36001953 195.12939453 124.70001953 195.12939453 124.02001953 195.12939453 C123.69001953 195.78939453 123.36001953 196.44939453 123.02001953 197.12939453 C122.45025391 196.25927734 121.88048828 195.38916016 121.29345703 194.49267578 C114.88428304 184.8901491 107.35147778 176.04040842 99.99438477 167.16088867 C96.46346866 162.89636381 93.000814 158.59502205 89.63330078 154.19970703 C87.76611554 151.80356132 85.8328541 149.46876239 83.89501953 147.12939453 C80.00457005 142.40385708 76.28110721 137.56862663 72.58251953 132.69189453 C68.02338291 126.68529791 63.34272677 120.84039115 58.47705078 115.07861328 C53.85850943 109.53489513 49.45635994 103.81911329 45.02001953 98.12939453 C39.20001757 90.67874518 33.3431108 83.27171965 27.33251953 75.97314453 C24.20608303 72.12847262 21.15809796 68.2245059 18.10595703 64.32080078 C15.28603498 60.72106788 12.42716557 57.15950043 9.52001953 53.62939453 C-15.97524766 22.6154738 -15.97524766 22.6154738 -14.97998047 10.12939453 C-12.29784034 3.49462684 -6.95865836 0.00603513 0 0 Z " fill="#229789" transform="translate(308.97998046875,342.87060546875)"/>
<path d="M0 0 C3.58247892 2.08118829 6.92240176 4.34599078 10.25 6.8125 C13.78408174 9.39748286 17.32381433 11.96466386 20.9375 14.4375 C21.62714844 14.91058594 22.31679688 15.38367188 23.02734375 15.87109375 C25.02484804 17.01421997 26.75077517 17.56223141 29 18 C29 18.66 29 19.32 29 20 C29.556875 20.17015625 30.11375 20.3403125 30.6875 20.515625 C33.14371287 21.29563855 35.57087447 22.13952607 38 23 C38.98613281 23.31324219 38.98613281 23.31324219 39.9921875 23.6328125 C47.54509531 26.61009981 52.14826783 33.81182245 57 40 C57.89706424 41.13417088 58.79419856 42.26828635 59.69140625 43.40234375 C61.5038291 45.70107474 63.30625966 48.00732566 65.10546875 50.31640625 C68.24859297 54.33582176 71.4643391 58.29466198 74.6875 62.25 C75.2347876 62.92281006 75.7820752 63.59562012 76.34594727 64.28881836 C78.75785373 67.25274696 81.17414533 70.21282427 83.6015625 73.1640625 C84.69597656 74.50597656 84.69597656 74.50597656 85.8125 75.875 C86.43769531 76.63554688 87.06289063 77.39609375 87.70703125 78.1796875 C89 80 89 80 89 82 C89.99 82.33 90.98 82.66 92 83 C93.44526736 84.73548169 94.8087222 86.53975963 96.125 88.375 C96.93293908 89.48320006 97.74288101 90.58994236 98.5546875 91.6953125 C99.16908691 92.53304199 99.16908691 92.53304199 99.79589844 93.38769531 C103.03165716 97.72041035 106.55656287 101.83247563 110 106 C112.1301345 108.59999652 114.25366396 111.20532158 116.375 113.8125 C116.93010254 114.49449463 117.48520508 115.17648926 118.05712891 115.87915039 C122.08824648 120.84499435 126.04059339 125.8677084 129.96948242 130.91455078 C133.11073747 134.9268813 136.3681436 138.82180417 139.6875 142.6875 C154.3435277 159.77580464 154.3435277 159.77580464 154.21484375 168.68359375 C153.77919627 173.3806657 151.8969321 176.17033781 148.5 179.3125 C143.98972476 182.35693579 139.83592051 182.15390769 134.58813477 182.16113281 C133.72915085 182.16609772 132.87016693 182.17106262 131.9851532 182.17617798 C129.13722941 182.19080517 126.28936147 182.19760531 123.44140625 182.203125 C121.45661925 182.20887944 119.47183227 182.21463714 117.48704529 182.22039795 C113.31826519 182.23091189 109.14950438 182.23675085 104.98071289 182.24023438 C99.66495149 182.24569609 94.34944921 182.26967247 89.03376865 182.29820633 C84.92853582 182.31693335 80.82336388 182.32204381 76.71809196 182.32357025 C74.76027967 182.32657861 72.80246799 182.33454501 70.84469795 182.34775543 C55.59057953 182.44327134 39.32648609 182.13729692 27.5 171 C23.52634436 166.70919814 20.05593937 161.98694925 16.53515625 157.32421875 C14.27931336 154.34520682 11.9419575 151.44424012 9.5625 148.5625 C6.16293916 144.44472208 2.8466016 140.27215238 -0.4375 136.0625 C-3.90506124 131.62040329 -7.43358112 127.24897415 -11.0625 122.9375 C-14.9497673 118.31214397 -18.66346168 113.58757395 -22.32275391 108.78271484 C-25.66734418 104.40136703 -29.13768802 100.13837824 -32.64453125 95.88671875 C-39.13195264 87.93613101 -45.40615862 79.8066592 -51.66015625 71.671875 C-53.04230123 69.88464377 -53.04230123 69.88464377 -55 68 C-54.28714844 67.16597656 -53.57429688 66.33195313 -52.83984375 65.47265625 C-48.06608682 59.87067924 -43.33529345 54.25983041 -38.85546875 48.41796875 C-36.52935705 45.38667792 -34.17291965 42.37958392 -31.8125 39.375 C-31.34803467 38.78372314 -30.88356934 38.19244629 -30.4050293 37.58325195 C-25.4257526 31.25483927 -20.39185562 24.97047474 -15.35302734 18.68945312 C-14.12406431 17.15491249 -12.89966402 15.61672048 -11.67578125 14.078125 C-7.87503565 9.30004482 -4.00637435 4.6073305 0 0 Z " fill="#229689" transform="translate(556,554)"/>
<path d="M0 0 C7.92 0 15.84 0 24 0 C24 6.6 24 13.2 24 20 C26.31 20.33 28.62 20.66 31 21 C42.17125731 24.0006281 50.42961473 30.91805867 56.65625 40.56640625 C59.5220628 45.75652653 60 50.08121844 60 56 C51.09 56 42.18 56 33 56 C31.68 52.7 30.36 49.4 29 46 C21.26577792 41.04526398 14.09315822 40.34631982 5 41 C-0.06616518 42.12765706 -4.31531085 44.31531085 -8 48 C-10.37347098 52.0688074 -10.71068647 56.39924023 -10 61 C-7.61379961 65.77240079 -3.94896831 67.28560243 0.8515625 69.03125 C9.64929123 71.73824346 18.60136264 73.67174781 27.69702148 75.0390625 C39.75351419 76.89868967 48.23838504 80.83548239 56.1171875 90.39453125 C62.98254106 99.89492715 63.39767463 110.60738722 62 122 C60.96499216 125.9459674 59.45657269 128.76283412 57 132 C56.34515625 132.87140625 55.6903125 133.7428125 55.015625 134.640625 C47.81288914 143.37585785 38.97521296 147.63166457 28 150 C26.68 150 25.36 150 24 150 C24 156.6 24 163.2 24 170 C16.08 170 8.16 170 0 170 C0 163.4 0 156.8 0 150 C-2.31 150 -4.62 150 -7 150 C-17.10330868 147.09634003 -25.98565655 142.84367169 -32 134 C-35.76471328 126.76405916 -38 121.26987723 -38 113 C-29.09 113 -20.18 113 -11 113 C-10.01 115.97 -9.02 118.94 -8 122 C-3.13724898 127.19430222 1.38428686 128.75604827 8.2421875 129.21875 C16.91050596 129.44244854 24.22803741 129.22188471 31 123.4375 C33.86864236 119.94134213 34.15732563 118.14727207 34.1875 113.6875 C34.20167969 112.74261719 34.21585938 111.79773438 34.23046875 110.82421875 C33.98087592 107.76564893 33.46995572 105.69414597 32 103 C30.28684596 101.72258548 30.28684596 101.72258548 28 101 C26.98292969 100.62101562 25.96585938 100.24203125 24.91796875 99.8515625 C16.74334635 97.16378089 8.75277962 95.34548117 0.25 94 C-12.41023586 91.9502965 -24.31552739 89.18614649 -32.3046875 78.20703125 C-38.14789934 68.54653869 -38.62646904 56.7719898 -36.34765625 45.8828125 C-32.9678117 36.57010777 -25.35430624 29.0846702 -17 24 C-11.22357458 21.50546724 -6.31828572 20 0 20 C0 13.4 0 6.8 0 0 Z " fill="#E6E7E3" transform="translate(646,359)"/>
<path d="M0 0 C0.66 0 1.32 0 2 0 C4.09984211 7.51610153 4.30831134 14.78163082 4.26074219 22.5390625 C4.24998508 24.62789695 4.26070683 26.71587848 4.2734375 28.8046875 C4.2721163 30.1536477 4.26955474 31.50260738 4.265625 32.8515625 C4.26336914 34.05635254 4.26111328 35.26114258 4.25878906 36.50244141 C3.90934901 41.22515666 3.43290738 45.56709262 0 49 C0.0721875 48.29359375 0.144375 47.5871875 0.21875 46.859375 C1.63160151 31.23951662 1.2215758 15.61871916 0 0 Z " fill="#3C9879" transform="translate(780,416)"/>
<path d="M0 0 C0.66 0 1.32 0 2 0 C3.55078125 2.01171875 3.55078125 2.01171875 5.3125 4.6875 C7.24672535 7.53709948 8.99777141 9.99777141 11.4375 12.4375 C14.74763458 15.74763458 17.28730572 19.46077995 19.99609375 23.26953125 C21.73952495 25.64508371 23.54668402 27.85982454 25.5 30.0625 C28 33 28 33 28 35 C28.66 35 29.32 35 30 35 C31.23681641 36.37695312 31.23681641 36.37695312 32.6015625 38.28125 C33.33632813 39.29638672 33.33632813 39.29638672 34.0859375 40.33203125 C34.59382813 41.04746094 35.10171875 41.76289063 35.625 42.5 C36.140625 43.21542969 36.65625 43.93085938 37.1875 44.66796875 C38.46422959 46.44120429 39.73470027 48.21859948 41 50 C40.505 50.99 40.505 50.99 40 52 C39.32195312 51.12859375 38.64390625 50.2571875 37.9453125 49.359375 C33.37529316 43.50445168 28.77930473 37.68598954 24 32 C19.4173163 26.54442417 15.0080129 20.97027625 10.62890625 15.3515625 C7.60567103 11.47800774 4.49280724 7.67866848 1.36328125 3.890625 C0 2 0 2 0 0 Z " fill="#2C897E" transform="translate(346,429)"/>
<path d="M0 0 C5.29606429 -0.18262291 8.97723223 0.18325421 14 2 C19.30758536 2.948595 24.41046095 3.13348137 29.77734375 3.09765625 C30.99436729 3.09553383 30.99436729 3.09553383 32.23597717 3.09336853 C34.80319047 3.08781357 37.37031348 3.07526967 39.9375 3.0625 C41.68814977 3.05747917 43.43880093 3.05291729 45.18945312 3.04882812 C49.4596697 3.03785893 53.72981959 3.02062582 58 3 C54.32182178 5.35541719 50.74368948 5.30632788 46.515625 5.30078125 C45.78237 5.30506638 45.04911499 5.3093515 44.29364014 5.31376648 C42.73694893 5.31950552 41.1802309 5.32001316 39.62353516 5.31567383 C37.29930355 5.31256593 34.97641308 5.33579163 32.65234375 5.36132812 C8.19793645 5.46529097 8.19793645 5.46529097 0 0 Z " fill="#93AA9D" transform="translate(621,566)"/>
<path d="M0 0 C1.12563103 0.00212242 1.12563103 0.00212242 2.27400208 0.00428772 C4.66838585 0.00988065 7.06267578 0.02243181 9.45703125 0.03515625 C11.08137886 0.04017217 12.70572793 0.04473491 14.33007812 0.04882812 C18.30993194 0.05984777 22.28971569 0.07710752 26.26953125 0.09765625 C26.26953125 1.08765625 26.26953125 2.07765625 26.26953125 3.09765625 C21.64308221 3.1471655 17.01678807 3.18342741 12.39013672 3.20751953 C10.8168672 3.21756512 9.24361629 3.23120406 7.67041016 3.24853516 C5.40652873 3.27284721 3.14289459 3.28415372 0.87890625 3.29296875 C0.17771667 3.30329132 -0.5234729 3.31361389 -1.24591064 3.32424927 C-4.91610351 3.32508882 -7.61136088 3.1187822 -10.73046875 1.09765625 C-7.09813773 -0.11312076 -3.77924888 -0.02678539 0 0 Z " fill="#273641" transform="translate(368.73046875,732.90234375)"/>
<path d="M0 0 C12.5336739 1.11907803 24.85675076 3.75720049 37 7 C37 7.33 37 7.66 37 8 C35.31003906 7.77763672 35.31003906 7.77763672 33.5859375 7.55078125 C30.53167956 7.1671514 27.48194131 6.85690227 24.4140625 6.60546875 C15.73692861 5.86649436 7.83846155 5.15095907 0 1 C0 0.67 0 0.34 0 0 Z " fill="#C7CEC6" transform="translate(650,430)"/>
<path d="M0 0 C0.66 0 1.32 0 2 0 C3.5859375 1.79296875 3.5859375 1.79296875 5.375 4.1875 C7.35603259 6.81784807 9.3338294 9.40230722 11.4375 11.9375 C13 14 13 14 13 16 C13.66 16 14.32 16 15 16 C15.66 17.65 16.32 19.3 17 21 C17.66 21 18.32 21 19 21 C20.38938077 22.96147874 21.7260411 24.96166576 23 27 C22.67 27.66 22.34 28.32 22 29 C16.1564319 22.19569054 10.3899683 15.33747823 4.8125 8.3125 C4.33127686 7.7129248 3.85005371 7.11334961 3.35424805 6.49560547 C0 2.23637921 0 2.23637921 0 0 Z " fill="#2C8A7F" transform="translate(537,665)"/>
<path d="M0 0 C7.5997769 0.47498606 12.94791025 6.77072346 17.75 12.0625 C19.18308772 13.6940549 20.60024276 15.33976162 22 17 C22.76828125 17.86496094 23.5365625 18.72992188 24.328125 19.62109375 C24.87984375 20.40613281 25.4315625 21.19117188 26 22 C25.67 22.99 25.34 23.98 25 25 C24.48050781 24.34773438 23.96101563 23.69546875 23.42578125 23.0234375 C21.28863413 20.34509047 19.14585693 17.67137292 17 15 C16.48050781 14.35160156 15.96101563 13.70320313 15.42578125 13.03515625 C13.08302515 10.08231289 13.08302515 10.08231289 10 8 C10 7.34 10 6.68 10 6 C9.278125 5.7525 8.55625 5.505 7.8125 5.25 C4.75286734 3.89016326 2.5326262 2.17082246 0 0 Z " fill="#2B877C" transform="translate(405,347)"/>
<path d="M0 0 C9.10183529 1.50636435 19.85287132 11.73202573 25.4453125 18.8359375 C26.35298849 20.18793041 27.1882783 21.58831009 28 23 C23.93686138 21.40170377 21.31808538 18.47546962 18.375 15.375 C16.62028159 13.52792799 14.84999775 11.75602961 13 10 C12.34 10 11.68 10 11 10 C9.33333333 8.33333333 7.66666667 6.66666667 6 5 C4.91434874 4.22344004 3.81021657 3.47193595 2.6875 2.75 C1.800625 2.1725 0.91375 1.595 0 1 C0 0.67 0 0.34 0 0 Z " fill="#278C6A" transform="translate(726,337)"/>
<path d="M0 0 C0.84030158 2.62594243 0.97393944 4.45171644 0.8125 7.25 C1.18301201 14.66024024 5.66718387 20.22291183 10 26 C9.01 26 8.02 26 7 26 C5.2109375 23.8828125 5.2109375 23.8828125 3.375 21.125 C2.76398438 20.22007812 2.15296875 19.31515625 1.5234375 18.3828125 C-0.78345426 14.77459719 -1.13636272 12.84056486 -1.125 8.5625 C-1.12757813 7.59441406 -1.13015625 6.62632812 -1.1328125 5.62890625 C-1 3 -1 3 0 0 Z " fill="#3B9085" transform="translate(295,350)"/>
<path d="M0 0 C0.55945313 0.2165625 1.11890625 0.433125 1.6953125 0.65625 C11.20096054 3.95724675 21.16330539 3.87365612 31 2 C30.67 2.66 30.34 3.32 30 4 C25.43719699 5.52093434 20.90455432 5.22539483 16.125 5.25 C15.13113281 5.270625 14.13726563 5.29125 13.11328125 5.3125 C3.77060149 5.36252774 3.77060149 5.36252774 0 2 C0 1.34 0 0.68 0 0 Z " fill="#ACC1B4" transform="translate(641,485)"/>
<path d="M0 0 C0.66 0 1.32 0 2 0 C3.9453125 2.1171875 3.9453125 2.1171875 6.125 4.875 C6.84945313 5.77992188 7.57390625 6.68484375 8.3203125 7.6171875 C10 10 10 10 10 12 C10.66 12 11.32 12 12 12 C13.38938077 13.96147874 14.7260411 15.96166576 16 18 C15.67 18.66 15.34 19.32 15 20 C13.0609583 17.75131288 11.12372378 15.50111139 9.1875 13.25 C8.64029297 12.61578125 8.09308594 11.9815625 7.52929688 11.328125 C0 2.56676136 0 2.56676136 0 0 Z " fill="#298C7F" transform="translate(310,384)"/>
<path d="M0 0 C0.66 0 1.32 0 2 0 C5.6007005 4.01616595 5.48865891 8.32956398 5.37109375 13.4609375 C5 16 5 16 3 18.6875 C2.34 19.120625 1.68 19.55375 1 20 C1.350625 19.154375 1.70125 18.30875 2.0625 17.4375 C3.13870818 13.49140334 2.89782357 10.96538742 2 7 C1.34 6.01 0.68 5.02 0 4 C0 2.68 0 1.36 0 0 Z " fill="#208D69" transform="translate(676,462)"/>
<path d="M0 0 C0.33 0.99 0.66 1.98 1 3 C0.67 3.66 0.34 4.32 0 5 C-0.07033769 6.87379605 -0.0843022 8.75001102 -0.0625 10.625 C-0.05347656 11.62789063 -0.04445313 12.63078125 -0.03515625 13.6640625 C-0.02355469 14.43492187 -0.01195312 15.20578125 0 16 C0.99 16.33 1.98 16.66 3 17 C2.67 17.99 2.34 18.98 2 20 C-3.35714286 14.64285714 -3.35714286 14.64285714 -3.5 10 C-3.26423958 6.16889312 -1.97843415 3.29739025 0 0 Z " fill="#3B9275" transform="translate(638,406)"/>
<path d="M0 0 C4.0079482 1.33598273 5.61530939 3.99420347 8.0625 7.25 C8.50916016 7.82363281 8.95582031 8.39726563 9.41601562 8.98828125 C11.86118148 12.197333 13.71167072 15.12773346 15 19 C11.52779365 15.61398317 8.32706796 12.1232405 5.25 8.375 C4.08210937 6.96347656 4.08210937 6.96347656 2.890625 5.5234375 C1 3 1 3 0 0 Z " fill="#2B877C" transform="translate(631,619)"/>
<path d="M0 0 C3.71368887 1.23789629 4.77354181 2.85224877 7 6 C7 6.66 7 7.32 7 8 C7.66 8 8.32 8 9 8 C10.38938077 9.96147874 11.7260411 11.96166576 13 14 C12.67 14.66 12.34 15.32 12 16 C9.65802043 13.34080706 7.32657567 10.67267784 5 8 C4.47921875 7.40703125 3.9584375 6.8140625 3.421875 6.203125 C0 2.23060345 0 2.23060345 0 0 Z " fill="#2A8C81" transform="translate(560,694)"/>
<path d="M0 0 C3.41158256 1.13719419 4.11854601 2.04342944 6 5 C6 5.66 6 6.32 6 7 C6.66 7 7.32 7 8 7 C9.2890625 8.53125 9.2890625 8.53125 10.625 10.5 C11.07101562 11.1496875 11.51703125 11.799375 11.9765625 12.46875 C12.48316406 13.22671875 12.48316406 13.22671875 13 14 C12.67 14.66 12.34 15.32 12 16 C0 2.63106796 0 2.63106796 0 0 Z " fill="#2B8C81" transform="translate(388,482)"/>
<path d="M0 0 C5.61 0 11.22 0 17 0 C17.66 1.32 18.32 2.64 19 4 C17.081875 3.5359375 17.081875 3.5359375 15.125 3.0625 C10.11241278 1.93885167 5.11489044 1.40577419 0 1 C0 0.67 0 0.34 0 0 Z " fill="#CCE2DA" transform="translate(653,398)"/>
<path d="M0 0 C3.96 0.33 7.92 0.66 12 1 C12 1.33 12 1.66 12 2 C8.7 2 5.4 2 2 2 C2 2.66 2 3.32 2 4 C-0.31 4 -2.62 4 -5 4 C-4.67 3.34 -4.34 2.68 -4 2 C-2.68 2 -1.36 2 0 2 C0 1.34 0 0.68 0 0 Z " fill="#2E9574" transform="translate(675,317)"/>
<path d="M0 0 C-0.33 0.99 -0.66 1.98 -1 3 C-2.98723268 3.70381157 -4.98777953 4.3711811 -7 5 C-7.33 5.66 -7.66 6.32 -8 7 C-8.66 7 -9.32 7 -10 7 C-9.8125 5.1875 -9.8125 5.1875 -9 3 C-5.65188866 0.46629412 -4.29875783 0 0 0 Z " fill="#248F6B" transform="translate(649,401)"/>
<path d="M0 0 C0 0.66 0 1.32 0 2 C-0.66 2 -1.32 2 -2 2 C-2.28875 2.639375 -2.5775 3.27875 -2.875 3.9375 C-4 6 -4 6 -6 7 C-6.66 7.99 -7.32 8.98 -8 10 C-8.375 7.8125 -8.375 7.8125 -8 5 C-5.8280714 2.51971116 -3.44755208 0 0 0 Z " fill="#258D81" transform="translate(304,344)"/>
<path d="M0 0 C0.33 0.66 0.66 1.32 1 2 C2.89533342 2.46523063 2.89533342 2.46523063 5.0625 2.625 C6.361875 2.74875 7.66125 2.8725 9 3 C9.33 3.99 9.66 4.98 10 6 C8.20620902 5.55005243 6.41501072 5.08975857 4.625 4.625 C3.62726562 4.36976563 2.62953125 4.11453125 1.6015625 3.8515625 C-1 3 -1 3 -3 1 C-2.01 0.67 -1.02 0.34 0 0 Z " fill="#CAE0D8" transform="translate(699,320)"/>
<path d="M0 0 C5.35152885 0.32433508 8.28280043 3.49704824 12 7 C11.34 7.66 10.68 8.32 10 9 C8.70756532 7.8758824 7.41607925 6.75067408 6.125 5.625 C5.40570312 4.99851562 4.68640625 4.37203125 3.9453125 3.7265625 C2.5923402 2.52573166 1.2791655 1.2791655 0 0 Z " fill="#319171" transform="translate(687,384)"/>
<path d="M0 0 C0.33 0 0.66 0 1 0 C1.02708567 1.60407328 1.04643483 3.2082785 1.0625 4.8125 C1.07410156 5.70582031 1.08570313 6.59914063 1.09765625 7.51953125 C1 10 1 10 0 13 C-0.66 13 -1.32 13 -2 13 C-1.85769192 11.58297487 -1.71099254 10.1663904 -1.5625 8.75 C-1.48128906 7.96109375 -1.40007813 7.1721875 -1.31640625 6.359375 C-1.02365007 4.17635361 -0.57935581 2.1226818 0 0 Z " fill="#C0D8CD" transform="translate(782,462)"/>
<path d="M0 0 C4.41889613 1.35021826 6.34345343 3.26115668 9 7 C7.35 6.67 5.7 6.34 4 6 C4 5.01 4 4.02 4 3 C2.68 2.67 1.36 2.34 0 2 C0 1.34 0 0.68 0 0 Z " fill="#D0D4CE" transform="translate(690,440)"/>
<path d="M0 0 C0.66 0.33 1.32 0.66 2 1 C2 1.99 2 2.98 2 4 C-0.64 4 -3.28 4 -6 4 C-3.94766315 1.7522025 -2.99332739 0.9977758 0 0 Z " fill="#CFD5CE" transform="translate(634,381)"/>
<path d="M0 0 C1.98 0.66 3.96 1.32 6 2 C5.34 3.32 4.68 4.64 4 6 C2.0625 5.1875 2.0625 5.1875 0 4 C-0.33 3.01 -0.66 2.02 -1 1 C-0.67 0.67 -0.34 0.34 0 0 Z " fill="#E4E6E5" transform="translate(497,449)"/>
<path d="M0 0 C0.99 0.33 1.98 0.66 3 1 C4.6875 4.5625 4.6875 4.5625 6 8 C5.01 8.495 5.01 8.495 4 9 C3.71125 8.360625 3.4225 7.72125 3.125 7.0625 C2.17176549 4.84793921 2.17176549 4.84793921 0 4 C0 2.68 0 1.36 0 0 Z " fill="#2C9471" transform="translate(763,374)"/>
<path d="M0 0 C3.63 1.98 7.26 3.96 11 6 C8 7 8 7 5.95703125 6.07421875 C4.89548828 5.38779297 4.89548828 5.38779297 3.8125 4.6875 C3.09707031 4.23761719 2.38164063 3.78773438 1.64453125 3.32421875 C1.10183594 2.88722656 0.55914063 2.45023437 0 2 C0 1.34 0 0.68 0 0 Z " fill="#319272" transform="translate(717,330)"/>
<path d="M0 0 C4.55015893 1.51671964 6.50057264 5.16891053 9 9 C4.71930097 7.41455592 2.70478088 4.5312417 0 1 C0 0.67 0 0.34 0 0 Z " fill="#328B80" transform="translate(682,683)"/>
<path d="M0 0 C2.93200474 2.85276137 5.64315404 5.65079784 8 9 C7.67 9.66 7.34 10.32 7 11 C5.82439821 9.73742767 4.65977135 8.46462916 3.5 7.1875 C2.8503125 6.47980469 2.200625 5.77210938 1.53125 5.04296875 C0 3 0 3 0 0 Z " fill="#288A7F" transform="translate(528,653)"/>
<path d="M0 0 C3 3.75 3 3.75 3 6 C3.66 6 4.32 6 5 6 C4.67 7.32 4.34 8.64 4 10 C3.731875 9.195625 3.46375 8.39125 3.1875 7.5625 C2.795625 6.716875 2.40375 5.87125 2 5 C1.01 4.67 0.02 4.34 -1 4 C-0.67 2.68 -0.34 1.36 0 0 Z " fill="#429A7B" transform="translate(551,509)"/>
<path d="M0 0 C0.66 0.33 1.32 0.66 2 1 C-0.31 3.64 -2.62 6.28 -5 9 C-5 4.61031544 -2.87194899 3.23094261 0 0 Z " fill="#0D2834" transform="translate(486,473)"/>
<path d="M0 0 C0.99 0.33 1.98 0.66 3 1 C4.35015859 5.05047576 3.62084998 7.7920168 3 12 C2.67 12 2.34 12 2 12 C1.34 8.04 0.68 4.08 0 0 Z " fill="#C2C4C6" transform="translate(506,451)"/>
<path d="M0 0 C3.43927579 1.2419607 6.25207819 2.55740284 9 5 C9 5.66 9 6.32 9 7 C8.401875 6.690625 7.80375 6.38125 7.1875 6.0625 C4.91043228 4.89790296 4.91043228 4.89790296 2 4 C0.8125 1.9375 0.8125 1.9375 0 0 Z " fill="#258679" transform="translate(560,558)"/>
<path d="M0 0 C2 1.375 2 1.375 4 3 C4 3.66 4 4.32 4 5 C4.66 5 5.32 5 6 5 C6.33 6.32 6.66 7.64 7 9 C1.21538462 4.56923077 1.21538462 4.56923077 0.125 1.6875 C0.08375 1.130625 0.0425 0.57375 0 0 Z " fill="#298F6C" transform="translate(557,519)"/>
<path d="M0 0 C0.33 0 0.66 0 1 0 C0.67 2.97 0.34 5.94 0 9 C-0.99 9.33 -1.98 9.66 -3 10 C-2.01 6.7 -1.02 3.4 0 0 Z " fill="#C5D6CC" transform="translate(776,485)"/>
<path d="M0 0 C3.45925163 1.2491742 6.14693203 2.67527795 9 5 C7.02 5 5.04 5 3 5 C3 4.34 3 3.68 3 3 C2.34 3 1.68 3 1 3 C0.67 2.01 0.34 1.02 0 0 Z " fill="#CFD3CC" transform="translate(682,382)"/>
<path d="M0 0 C2.18975773 3.28463659 2.99806563 6.20696275 4 10 C3.01 10.495 3.01 10.495 2 11 C0.80712589 7.12315913 0 4.08378077 0 0 Z " fill="#4B9D83" transform="translate(608,479)"/>
<path d="M0 0 C0.66 0.66 1.32 1.32 2 2 C1.8125 4 1.8125 4 1 6 C0.01 6.66 -0.98 7.32 -2 8 C-1.47731534 5.23723823 -0.89130413 2.6739124 0 0 Z " fill="#2C9472" transform="translate(706,483)"/>
<path d="M0 0 C0.99 0 1.98 0 3 0 C1.77065985 3.68802044 0.06140622 4.72356973 -3 7 C-3 3.47190093 -2.35723489 2.53184488 0 0 Z " fill="#379A7A" transform="translate(554,368)"/>
</svg>
