<svg version="1.1" id="Layer_1" xmlns="http://www.w3.org/2000/svg" xmlns:xlink="http://www.w3.org/1999/xlink" x="0px" y="0px"
	 width="100%" viewBox="0 0 512 512" enable-background="new 0 0 512 512" xml:space="preserve">
<path fill="transparent" opacity="1.000000" stroke="none" 
	d="
M1.000000,185.000000 
	C1.000000,123.333336 1.000000,62.166668 1.000000,1.000000 
	C171.666672,1.000000 342.333344,1.000000 513.000000,1.000000 
	C513.000000,171.666672 513.000000,342.333344 513.000000,513.000000 
	C342.333344,513.000000 171.666672,513.000000 1.000000,513.000000 
	C1.000000,403.833344 1.000000,294.666656 1.000000,185.000000 
M63.984776,133.012604 
	C63.984776,133.012604 63.912773,133.018341 64.069069,133.575562 
	C64.388191,133.781906 64.707314,133.988235 65.246170,134.822266 
	C66.272842,135.986771 67.299507,137.151291 68.450912,138.652695 
	C68.639725,138.803024 68.846817,138.921387 69.009682,138.934616 
	C69.009682,138.934616 68.924805,138.979935 68.995277,139.658615 
	C69.643173,140.463089 70.291061,141.267563 70.992508,142.006241 
	C70.992508,142.006241 70.914894,142.040497 71.043503,142.577667 
	C71.354607,142.746475 71.665710,142.915283 71.985664,143.012192 
	C71.985664,143.012192 71.913338,143.016449 71.976135,143.688812 
	C72.627617,144.481766 73.279099,145.274719 73.997803,145.999130 
	C73.997803,145.999130 73.922829,146.059723 73.963509,146.748322 
	C75.284637,148.187912 76.605759,149.627502 77.999901,151.004883 
	C77.999901,151.004883 77.916229,151.051300 78.026360,151.593048 
	C78.338661,151.757019 78.650970,151.920975 78.986946,152.013138 
	C78.986946,152.013138 78.916550,152.040680 79.055786,152.581970 
	C79.376945,152.731018 79.698105,152.880066 80.180290,153.687897 
	C87.893654,163.193604 95.607010,172.699310 103.537979,182.762314 
	C103.995049,183.525116 104.452118,184.287933 104.986298,184.996704 
	C104.986298,184.996704 104.916496,185.053177 105.025299,185.591751 
	C105.335052,185.756088 105.644798,185.920425 105.987793,186.012100 
	C105.987793,186.012100 105.915031,186.045120 106.040833,186.581802 
	C106.351440,186.749863 106.662048,186.917923 106.983765,187.014038 
	C106.983765,187.014038 106.911324,187.021378 106.970444,187.691849 
	C107.620514,188.482010 108.270592,189.272186 109.001419,190.004761 
	C109.001419,190.004761 108.917908,190.055420 109.026421,190.593567 
	C109.336212,190.757263 109.646004,190.920975 109.988083,191.009979 
	C109.988083,191.009979 109.917274,191.050079 109.964188,191.729797 
	C110.951195,192.841965 111.938194,193.954132 113.000816,195.004593 
	C113.000816,195.004593 112.916931,195.053619 113.026543,195.593582 
	C113.337700,195.757233 113.648857,195.920883 113.986305,196.013123 
	C113.986305,196.013123 113.914780,196.039093 114.049767,196.573807 
	C114.360092,196.744232 114.670418,196.914658 114.986870,197.012131 
	C114.986870,197.012131 114.913651,197.013214 115.062599,197.581100 
	C115.388908,197.784851 115.715210,197.988586 116.262421,198.816132 
	C120.681015,204.214478 125.156273,209.567642 129.504410,215.022156 
	C135.454147,222.485779 141.218536,230.098373 147.228973,237.512054 
	C152.342560,243.819519 157.691895,249.935898 162.874359,256.822815 
	C155.370193,265.930756 147.414261,274.711975 140.512329,284.255463 
	C135.468979,291.228973 130.639099,298.284149 124.845337,304.695465 
	C121.828308,308.034119 119.892143,312.328156 117.024071,315.826935 
	C109.405502,325.120819 101.329536,334.044525 93.837257,343.435974 
	C84.635605,354.970154 75.928398,366.897339 66.848282,378.530365 
	C56.326073,392.010956 45.480167,405.241974 35.134136,418.854462 
	C32.985931,421.680908 31.438828,425.682556 31.359480,429.182159 
	C31.259039,433.611847 30.346214,439.378723 37.328747,441.610504 
	C41.024151,442.733032 44.708008,444.756378 48.417183,444.803894 
	C58.294647,444.930481 68.185051,444.249451 78.065346,443.784058 
	C80.048752,443.690643 82.010201,443.130951 84.608681,442.909363 
	C84.816605,442.955414 85.024521,443.001434 85.511780,443.850861 
	C94.866058,443.916016 104.220360,444.005920 113.574600,444.001129 
	C114.357605,444.000732 115.140282,443.362854 116.793610,443.001282 
	C120.892143,442.955627 125.074043,443.402679 129.065994,442.727203 
	C133.140839,442.037659 137.029114,440.245636 141.480316,438.717926 
	C145.367279,436.272583 149.594116,434.222443 153.037323,431.261108 
	C155.972137,428.737091 157.989609,425.152344 160.440475,422.058655 
	C170.414215,409.468811 180.366623,396.861877 190.388840,384.310699 
	C198.780609,373.801361 207.344940,363.428833 215.662704,352.861786 
	C219.985321,347.370239 223.939667,341.588806 228.669281,336.248932 
	C229.876434,337.766418 231.038712,339.322357 232.298874,340.794464 
	C236.705154,345.941772 241.319199,350.921875 245.532211,356.221497 
	C252.047272,364.416931 258.232025,372.874084 264.680969,381.123199 
	C269.414917,387.178589 274.347687,393.078522 279.000458,399.695343 
	C279.639801,400.482910 280.279114,401.270447 281.001221,402.006195 
	C281.001221,402.006195 280.915802,402.050018 281.036621,402.586395 
	C281.346588,402.753082 281.656555,402.919800 281.984924,403.014191 
	C281.984924,403.014191 281.914520,403.038879 281.968018,403.751984 
	C283.949799,406.187012 285.931610,408.622009 287.991913,410.998413 
	C287.991913,410.998413 287.919067,411.058838 288.026215,411.593658 
	C288.333679,411.757202 288.641113,411.920746 288.990845,412.009125 
	C288.990845,412.009125 288.916748,412.053284 289.027008,412.594238 
	C289.338837,412.758575 289.650635,412.922913 289.982330,413.016052 
	C289.982330,413.016052 289.909149,413.026093 290.054474,413.601898 
	C290.379425,413.820587 290.704376,414.039307 291.180206,414.772980 
	C291.508240,414.864838 291.836273,414.956696 292.294434,415.266388 
	C292.318542,415.459229 292.424896,415.579285 293.261627,416.055145 
	C296.422791,419.996063 299.583984,423.936951 302.222931,428.236938 
	C307.541779,435.255127 314.640411,439.556580 323.683777,441.982910 
	C324.117645,442.014740 324.551514,442.046570 324.995270,442.010132 
	C324.995270,442.010132 324.933197,442.040100 325.300140,442.846741 
	C332.893036,443.167999 340.485931,443.489288 348.988098,444.005005 
	C359.317902,443.955902 369.647736,443.906830 380.903534,444.031189 
	C391.817535,444.025146 402.731720,444.048157 413.645203,443.969482 
	C414.779236,443.961334 415.908905,443.349396 417.704102,442.988800 
	C418.478546,442.329193 419.252960,441.669586 420.773529,440.990204 
	C422.205994,439.683014 423.638458,438.375793 425.007080,436.997009 
	C425.007080,436.997009 425.059357,437.076324 425.802856,436.751282 
	C427.557617,430.085785 428.804321,423.494324 423.004120,417.999451 
	C423.004120,417.999451 423.073914,417.935211 422.927307,417.359253 
	C422.277924,416.907990 421.628540,416.456726 420.995361,415.999573 
	C420.995361,415.999573 420.991150,416.013306 420.753235,415.654144 
	C420.618561,415.355499 420.387512,415.211761 419.844543,414.512665 
	C417.626007,412.120911 415.280365,409.833252 413.217072,407.314301 
	C409.602295,402.901306 406.218353,398.299744 402.630096,393.864258 
	C399.226898,389.657562 395.636169,385.602844 392.217102,381.408600 
	C387.531158,375.660248 382.877777,369.883423 378.324310,364.030243 
	C377.019043,362.352386 376.364563,360.138519 374.963867,358.570404 
	C371.523315,354.718536 367.486969,351.364746 364.295013,347.331970 
	C357.467407,338.705872 351.098389,329.718628 344.395844,320.991150 
	C339.357422,314.430511 334.443542,307.714417 328.800323,301.699799 
	C325.226532,297.890808 320.584076,294.975616 316.110535,292.151093 
	C311.862091,289.468658 307.209747,287.425873 303.052826,284.441711 
	C303.721771,283.662628 304.390717,282.883545 305.823334,281.999664 
	C306.927856,280.025177 308.032349,278.050659 309.048981,276.043335 
	C309.048981,276.043335 309.080841,276.131561 309.721985,275.802765 
	C310.536804,274.552124 311.351593,273.301483 312.625214,271.958588 
	C312.893158,271.774384 313.076111,271.527222 313.894318,271.175751 
	C325.467163,276.401733 336.774323,282.386353 350.546417,283.925171 
	C354.995941,284.621155 359.445465,285.317108 364.301056,286.804260 
	C372.952789,286.898041 381.618835,287.318695 390.249847,286.940216 
	C394.241486,286.765167 398.164734,285.031097 402.880188,283.946655 
	C411.306976,280.941315 419.739105,277.950897 428.159210,274.926971 
	C439.758728,270.761261 449.114502,263.250946 458.608856,254.918060 
	C459.719788,253.275299 460.830688,251.632523 462.442352,249.819366 
	C462.624268,249.528229 462.806213,249.237076 463.613953,248.718353 
	C475.881897,237.024399 484.029236,222.731003 490.036743,206.248459 
	C492.367462,195.949844 495.887482,185.751938 496.769958,175.330688 
	C498.378876,156.330292 496.165253,137.486984 488.973389,119.592125 
	C487.217041,115.221962 484.328552,111.306786 481.349518,106.745071 
	C480.479248,104.768517 479.608948,102.791954 478.871277,100.146095 
	C478.609253,99.414391 478.347229,98.682693 478.000000,97.997070 
	C478.000000,97.997070 478.086884,97.956932 478.039612,97.286087 
	C477.379211,96.499062 476.718781,95.712036 476.008026,94.995819 
	C476.008026,94.995819 476.083130,94.952110 476.034851,94.226898 
	C472.376526,90.128799 468.718201,86.030693 465.000000,82.000000 
	C465.000000,82.000000 465.063110,81.935463 465.009674,81.232201 
	C459.687469,76.460037 454.365234,71.687874 449.014313,66.985817 
	C449.014313,66.985817 449.087402,66.965904 448.968109,66.433098 
	C448.663727,66.261444 448.359314,66.089798 448.003601,66.001129 
	C448.003601,66.001129 448.061676,65.921394 447.881500,65.281952 
	C446.938202,64.827217 445.994873,64.372490 445.001221,63.998940 
	C445.001221,63.998940 445.062225,63.925426 444.854919,63.251041 
	C441.586456,61.473793 438.318024,59.696545 435.002563,57.992966 
	C435.002563,57.992966 435.073242,57.941593 434.817749,57.258301 
	C431.546265,55.893448 428.274750,54.528595 424.513519,53.018150 
	C424.346710,52.983761 424.179901,52.949368 424.009888,52.986603 
	C424.009888,52.986603 424.080780,52.975899 423.845154,52.270351 
	C422.296783,51.492027 420.801758,50.574806 419.191833,49.956867 
	C403.176544,43.809677 386.537842,42.414124 369.518219,42.884129 
	C357.769257,43.208584 346.492340,45.416229 335.502869,49.242290 
	C333.082886,50.084824 331.143677,52.308380 328.258759,54.015327 
	C324.689392,55.450325 320.801575,56.388123 317.618866,58.426743 
	C311.522461,62.331650 305.826782,66.862122 299.258484,70.995827 
	C298.155090,71.633690 297.051697,72.271561 295.961639,72.960236 
	C295.961639,72.960236 295.911072,72.945961 295.273499,73.139801 
	C291.830841,76.730232 288.388153,80.320663 284.965149,83.964989 
	C284.965149,83.964989 284.911194,83.945518 284.259644,84.151482 
	C283.489014,85.160736 282.811493,86.261055 281.930267,87.162132 
	C279.304718,89.846764 276.599152,92.453171 273.995850,94.411819 
	C273.957458,93.120369 273.919067,91.828911 273.717072,90.271667 
	C273.717072,90.271667 273.448242,90.113129 273.029938,89.493286 
	C272.553955,88.997261 272.131134,88.141052 271.593628,88.061653 
	C266.899536,87.368271 263.735382,90.167549 260.289001,93.222176 
	C260.289001,93.222176 260.108307,93.563705 259.611786,93.940300 
	C258.352356,95.609947 257.092926,97.279587 255.374146,99.042801 
	C255.073868,99.221199 254.932190,99.484825 254.313660,100.145226 
	C253.508041,101.742889 252.702408,103.340553 251.239685,105.225914 
	C247.837616,112.065125 243.780945,118.665001 241.174103,125.794968 
	C236.233063,139.309189 234.296951,153.441650 234.417480,168.035614 
	C234.315155,168.351517 234.212830,168.667404 233.961746,169.398102 
	C233.961746,169.398102 233.943130,169.838379 233.265030,170.172455 
	C230.462387,171.502472 227.659760,172.832474 224.314529,173.745682 
	C220.545578,168.800217 216.849884,163.796783 212.992630,158.921173 
	C204.634644,148.356659 196.229385,137.828979 187.772125,127.343765 
	C183.568146,122.131729 179.206741,117.046661 174.916367,111.904297 
	C165.584427,100.719193 156.252380,89.534172 146.996368,77.694633 
	C146.686935,77.438728 146.377518,77.182816 145.998138,76.994385 
	C145.998138,76.994385 146.062561,76.919823 145.846313,76.240807 
	C143.202042,74.805183 140.638809,73.187546 137.898514,71.967598 
	C129.191437,68.091301 120.006500,70.693283 110.118095,69.996147 
	C101.411682,70.056412 92.705276,70.116676 83.075836,70.004547 
	C71.453804,70.062294 59.831768,70.120033 47.337452,69.994934 
	C44.526039,70.644936 41.714626,71.294937 38.218159,72.051437 
	C36.437340,73.762642 34.656517,75.473839 32.077179,77.025978 
	C29.669666,80.200844 29.035841,89.532494 31.225519,92.451302 
	C31.627361,92.986946 32.975716,92.812523 34.041252,93.673172 
	C39.075516,100.148064 44.109776,106.622963 49.018082,113.831268 
	C50.992752,116.578285 52.967422,119.325294 54.992313,122.005966 
	C54.992313,122.005966 54.916679,122.040642 55.053303,122.571213 
	C55.361179,122.741745 55.669056,122.912277 55.987347,123.012222 
	C55.987347,123.012222 55.916824,123.023125 55.968315,123.708572 
	C56.957123,124.829948 57.945930,125.951324 58.995197,127.006310 
	C58.995197,127.006310 58.914852,127.046379 59.031372,127.587593 
	C59.343746,127.753601 59.656124,127.919601 59.984116,128.014099 
	C59.984116,128.014099 59.913040,128.031586 59.964321,128.715973 
	C60.954475,129.834747 61.944633,130.953537 62.995865,132.005417 
	C62.995865,132.005417 62.916058,132.048264 63.021900,132.596954 
	C63.338501,132.759186 63.655102,132.921417 63.984776,133.012604 
z"/>
<path fill="#209A73" opacity="1.000000" stroke="none" 
	d="
M462.988098,248.945908 
	C462.806213,249.237076 462.624268,249.528229 461.867859,249.940857 
	C460.163910,251.676941 459.034485,253.291519 457.905060,254.906097 
	C449.114502,263.250946 439.758728,270.761261 428.159210,274.926971 
	C419.739105,277.950897 411.306976,280.941315 402.123962,283.928894 
	C388.876831,284.611755 376.385925,285.312439 363.894989,286.013092 
	C359.445465,285.317108 354.995941,284.621155 350.053528,283.507141 
	C348.552917,282.597748 347.574219,282.031891 346.532990,281.626801 
	C337.452362,278.093567 328.315826,274.698822 319.294556,271.020966 
	C315.803101,269.597565 312.565094,267.552338 309.139862,265.833008 
	C309.068085,265.875641 309.177368,265.749420 309.097321,265.450684 
	C308.321289,264.796204 307.625305,264.440460 306.965271,264.046722 
	C307.001221,264.008728 306.928070,264.078857 306.824463,263.763702 
	C305.439789,262.659790 304.158661,261.871063 302.725037,260.911072 
	C302.352722,260.524139 302.107086,260.343536 301.746826,259.874084 
	C299.715027,258.102814 297.771973,256.655579 295.864075,255.143433 
	C295.899200,255.078506 295.786774,255.174225 295.728210,254.873871 
	C295.029816,254.128311 294.389984,253.683105 293.574280,253.074387 
	C293.170593,252.685959 292.944946,252.458847 292.682617,251.974274 
	C292.352295,251.569870 292.060791,251.420776 291.548706,251.051971 
	C290.473999,249.943878 289.619843,249.055481 288.728302,247.915680 
	C288.408234,247.506378 288.125549,247.348480 287.650635,246.930847 
	C286.174225,245.191330 284.890137,243.711578 283.597931,241.985687 
	C283.423676,241.409286 283.155670,241.245895 282.576965,240.983459 
	C272.836578,228.665939 265.977631,215.250641 261.871948,199.998093 
	C261.887787,198.380188 262.091064,197.153397 261.787933,196.068054 
	C257.813721,181.838440 257.677368,167.284882 257.947357,152.683197 
	C257.983063,150.752197 257.606384,148.813599 257.466492,146.453705 
	C259.389343,138.996246 261.266418,131.963593 263.489014,124.870392 
	C264.879028,121.524612 265.923553,118.239365 267.234985,114.806000 
	C267.640533,114.079895 267.779175,113.501907 268.199585,112.800323 
	C268.633942,112.100693 268.786530,111.524658 269.209290,110.803963 
	C269.625885,110.082741 269.772308,109.506180 270.199280,108.797928 
	C270.633057,108.086464 270.786255,107.506683 271.212189,106.802948 
	C271.652313,106.119804 271.819733,105.560600 272.318237,104.964333 
	C273.079041,104.247528 273.508728,103.567795 273.923035,102.520683 
	C276.831085,97.970894 279.863007,93.858383 282.623474,89.571083 
	C283.700500,87.898346 284.166748,85.832375 284.911194,83.945526 
	C284.911194,83.945518 284.965149,83.964989 285.201050,84.274872 
	C290.326233,82.191483 295.620239,76.308830 295.911072,72.945961 
	C295.911072,72.945961 295.961639,72.960236 296.185303,73.274330 
	C297.594269,72.769958 298.779541,71.951500 299.964844,71.133026 
	C305.826782,66.862122 311.522461,62.331650 317.618866,58.426743 
	C320.801575,56.388123 324.689392,55.450325 329.004517,54.005775 
	C333.324677,52.638489 336.899048,51.280754 340.859375,49.939484 
	C343.030945,49.656857 344.815002,49.348507 346.602325,49.060272 
	C354.713104,47.752285 362.824799,46.449978 371.403076,45.072098 
	C375.530273,45.001396 379.230621,44.658905 382.842529,45.078308 
	C390.563934,45.974903 398.284363,47.028381 405.919739,48.470276 
	C412.038788,49.625835 418.031830,51.449005 424.080780,52.975899 
	C424.080780,52.975899 424.009888,52.986603 423.983459,53.244667 
	C424.314423,53.630886 424.671753,53.759045 425.287720,54.134968 
	C428.721954,55.569019 431.897614,56.755310 435.073242,57.941597 
	C435.073242,57.941593 435.002563,57.992966 434.858765,58.292931 
	C438.164032,60.370403 441.613129,62.147915 445.062225,63.925423 
	C445.062225,63.925426 445.001221,63.998940 444.848633,64.336609 
	C445.817902,65.089981 446.939789,65.505684 448.061676,65.921394 
	C448.061676,65.921394 448.003601,66.001129 447.852173,66.323326 
	C448.162964,66.752319 448.625183,66.859108 449.087402,66.965904 
	C449.087402,66.965904 449.014313,66.985817 448.891754,67.291382 
	C453.548523,72.242790 458.310059,76.907372 463.139374,81.500641 
	C463.548431,81.889717 464.411133,81.801796 465.063110,81.935463 
	C465.063110,81.935463 465.000000,82.000000 464.772339,82.275436 
	C465.936920,84.295341 467.217041,86.146141 468.747375,87.759628 
	C471.102448,90.242668 473.629211,92.562851 476.083130,94.952118 
	C476.083130,94.952110 476.008026,94.995819 475.820435,95.296478 
	C476.450867,96.383736 477.268860,97.170334 478.086884,97.956932 
	C478.086884,97.956932 478.000000,97.997070 477.749420,98.175354 
	C477.912109,99.174225 478.325409,99.994804 478.738647,100.815399 
	C479.608948,102.791954 480.479248,104.768517 481.665009,107.344025 
	C482.652740,109.964417 483.159637,112.059547 484.022430,113.996109 
	C494.652710,137.856064 497.935211,162.540741 492.403351,188.208908 
	C491.047424,194.500443 489.477386,200.745834 487.725464,207.220032 
	C482.501648,219.216904 476.752594,230.540649 468.728424,240.604935 
	C466.629547,243.237411 464.891693,246.157745 462.988098,248.945908 
M340.950989,218.655838 
	C341.268494,218.842346 341.586029,219.028839 341.921326,219.083694 
	C341.921326,219.083694 341.789764,219.102142 341.992981,219.618835 
	C342.309875,219.796753 342.626801,219.974655 342.957031,220.049301 
	C342.957031,220.049301 342.853180,220.056503 343.077850,220.533371 
	C343.374481,220.716553 343.671082,220.899734 343.996216,221.012695 
	C343.996216,221.012695 343.929230,221.048218 344.221405,221.708374 
	C346.436646,222.561111 348.651917,223.413849 350.894135,224.142914 
	C350.894135,224.142914 350.770813,224.171432 350.995300,224.637894 
	C351.320160,224.712234 351.645050,224.786575 352.571808,225.050232 
	C352.983398,225.136871 353.394958,225.223495 354.285370,225.904984 
	C356.258850,226.489334 358.233490,227.566208 360.205627,227.561707 
	C365.248413,227.550171 365.994690,230.230331 365.674683,234.472717 
	C365.344208,238.853485 365.601196,243.278564 365.601196,248.107300 
	C373.681274,247.322510 381.112579,249.369446 388.086334,246.719666 
	C388.086334,240.553787 388.086334,234.775421 388.231750,228.685867 
	C388.231750,228.685867 388.149750,228.352325 388.868866,228.166916 
	C393.991913,226.767868 399.114929,225.368820 404.904358,223.975525 
	C405.932465,223.310883 406.960541,222.646240 408.594177,221.960556 
	C409.050690,221.628540 409.507233,221.296539 410.660858,220.935394 
	C413.062805,218.222031 415.464752,215.508682 417.923431,212.900864 
	C417.923431,212.900864 417.805969,212.924591 418.350128,212.745880 
	C418.515381,212.416809 418.680603,212.087738 418.860077,211.903687 
	C418.860077,211.903687 418.719238,211.866364 419.352966,211.662582 
	C419.528320,211.053802 419.703674,210.445023 419.908569,209.935654 
	C419.908569,209.935654 419.804993,209.930222 420.495361,209.717117 
	C420.986664,208.457047 421.477966,207.196976 422.005768,205.985153 
	C422.005768,205.985153 421.945862,205.976608 422.686005,205.885254 
	C428.213562,196.098709 426.805573,186.216476 422.633240,176.540009 
	C421.427582,173.743820 418.818085,171.552933 416.931702,169.033997 
	C416.931702,169.033997 416.967346,169.121185 416.741364,168.621689 
	C416.442566,168.423065 416.143768,168.224457 415.410248,167.895477 
	C415.130737,167.717209 414.987671,167.462357 414.748016,166.634262 
	C414.451660,166.429901 414.155304,166.225540 413.423676,165.925049 
	C413.138062,165.768143 412.982025,165.527283 412.921722,164.454788 
	C411.827301,163.772797 410.732910,163.090805 409.735168,162.211105 
	C409.735168,162.211105 409.711609,162.429916 409.708923,161.760681 
	C408.786224,161.519470 407.863495,161.278259 406.397308,161.003601 
	C406.252289,160.894424 406.107269,160.785263 405.844421,159.996536 
	C402.765503,158.666687 399.800293,156.864792 396.587463,156.090668 
	C384.282196,153.125763 371.321228,152.924194 359.775940,147.183517 
	C359.775940,147.183517 359.765869,147.324860 359.698181,146.725204 
	C359.354218,146.566635 359.010223,146.408066 358.815857,146.220245 
	C358.815857,146.220245 358.756744,146.360748 358.690582,145.547867 
	C355.136688,139.704071 357.623260,134.323471 359.994202,128.996078 
	C359.994202,128.996078 359.931854,128.962524 360.585968,128.940765 
	C360.983368,128.506729 361.380768,128.072678 361.860565,127.751183 
	C361.860565,127.751183 361.721924,127.766663 362.288940,127.733315 
	C362.514069,127.447784 362.739227,127.162254 362.962921,126.957970 
	C362.962921,126.957970 362.887146,126.928581 363.516663,126.940910 
	C363.993073,126.609833 364.469482,126.278748 365.809753,125.979942 
	C370.542297,125.657570 375.296631,124.907539 380.000549,125.147125 
	C383.814819,125.341408 387.568573,126.724800 391.346893,127.675896 
	C391.346893,127.675896 391.251862,127.680458 391.300079,128.278641 
	C391.644836,128.414810 391.989563,128.550995 392.360474,128.638214 
	C392.360474,128.638214 392.415710,128.632446 392.270782,129.205643 
	C392.750122,129.768509 393.229492,130.331375 394.218170,131.420731 
	C395.211151,133.607819 396.204132,135.794891 397.203339,138.492661 
	C397.468597,138.698914 397.733856,138.905182 398.614838,139.671951 
	C403.722412,139.787506 408.832611,140.051636 413.936615,139.962494 
	C416.960205,139.909668 419.973999,139.299179 423.052216,138.466583 
	C423.052216,138.466583 422.914673,138.010178 422.990509,137.311615 
	C422.666565,136.210709 422.342621,135.109787 422.028809,133.239532 
	C417.923279,117.772766 408.063965,108.281822 392.397034,105.024498 
	C388.935120,104.304733 387.764557,102.590805 387.935944,99.173409 
	C388.165375,94.599075 387.992737,90.004585 387.992737,85.363708 
	C380.044312,85.363708 372.799347,85.363708 365.083527,85.363708 
	C365.083527,91.671265 365.083527,97.756569 365.083527,104.037766 
	C353.033478,106.143936 342.684265,110.513557 335.363770,121.323357 
	C327.638184,130.028946 327.926300,151.332504 336.013336,160.616058 
	C336.159241,160.883606 336.381348,161.048477 336.929352,161.619019 
	C337.231110,161.829880 337.532837,162.040756 337.840546,162.138245 
	C337.840546,162.138245 337.741669,162.194046 337.941925,162.692245 
	C338.239319,162.878357 338.536743,163.064468 338.833435,163.121765 
	C338.833435,163.121765 338.754059,163.223221 339.005859,163.763016 
	C339.636261,164.224899 340.266663,164.686783 340.947815,165.063797 
	C340.947815,165.063797 340.850830,165.083038 341.082642,165.549255 
	C341.386627,165.699127 341.690643,165.848984 342.302521,166.448807 
	C342.793427,166.662598 343.284332,166.876373 344.237762,167.619522 
	C347.998779,169.412018 351.655457,171.492691 355.554413,172.904327 
	C358.583130,174.000885 361.897308,174.371765 365.115112,174.866653 
	C368.722107,175.421402 372.414215,175.506577 375.977539,176.241089 
	C380.864441,177.248398 386.336304,177.607971 390.363251,180.142548 
	C398.822205,185.466614 401.687134,191.464157 395.774506,202.433044 
	C381.838287,214.817947 362.946320,210.856201 354.558777,193.858994 
	C354.155823,193.042450 352.923950,192.137634 352.062988,192.122299 
	C344.464508,191.986908 336.862610,192.043747 329.223511,192.043747 
	C329.867279,196.330811 329.886658,200.343521 331.167389,203.902283 
	C332.463165,207.502991 335.007446,210.654388 337.128906,214.512405 
	C337.399445,214.721237 337.669952,214.930069 337.948639,215.047501 
	C337.948639,215.047501 337.857910,215.061218 338.035858,215.583710 
	C338.326599,215.790115 338.617371,215.996536 338.918579,216.072037 
	C338.918579,216.072037 338.789368,216.095581 338.970886,216.630234 
	C339.275269,216.831039 339.579620,217.031845 339.897858,217.093414 
	C339.897858,217.093414 339.761078,217.122894 339.941864,217.660233 
	C340.255524,217.852371 340.569183,218.044510 340.900787,218.097763 
	C340.900787,218.097763 340.763153,218.123734 340.950989,218.655838 
z"/>
<path fill="#172A39" opacity="1.000000" stroke="none" 
	d="
M37.000534,440.965454 
	C30.346214,439.378723 31.259039,433.611847 31.359480,429.182159 
	C31.438828,425.682556 32.985931,421.680908 35.134136,418.854462 
	C45.480167,405.241974 56.326073,392.010956 66.848282,378.530365 
	C75.928398,366.897339 84.635605,354.970154 93.837257,343.435974 
	C101.329536,334.044525 109.405502,325.120819 117.024071,315.826935 
	C119.892143,312.328156 121.828308,308.034119 124.845337,304.695465 
	C130.639099,298.284149 135.468979,291.228973 140.512329,284.255463 
	C147.414261,274.711975 155.370193,265.930756 163.205902,256.308228 
	C164.242920,255.094421 165.025787,254.457153 165.642532,253.686859 
	C182.120270,233.106827 198.623184,212.546661 215.013412,191.897079 
	C218.885574,187.018677 222.369080,181.831772 226.383362,176.779846 
	C229.120346,175.951096 231.505325,175.129288 233.881760,174.498795 
	C233.873215,174.690094 234.083908,175.009918 234.065063,175.414566 
	C234.664795,179.221497 235.283356,182.623779 235.866699,186.361176 
	C235.925247,187.134232 236.018997,187.572189 236.062012,188.336761 
	C236.237518,189.491821 236.463760,190.320267 236.678665,191.469421 
	C236.799774,192.195450 236.932236,192.600769 237.023956,193.334869 
	C237.246902,194.477310 237.510574,195.290939 237.770035,196.430542 
	C237.881180,197.174713 237.996552,197.592926 238.070282,198.300674 
	C238.256516,199.106018 238.484375,199.621826 238.725647,200.459045 
	C238.863983,201.190018 238.988892,201.599548 239.105225,202.386124 
	C241.024277,208.000122 242.951920,213.237091 244.845581,218.626740 
	C244.811584,218.779434 245.029007,219.004410 245.035797,219.334167 
	C245.632828,220.805908 246.223083,221.947876 246.848724,223.415482 
	C247.286865,224.500854 247.689651,225.260590 248.100067,226.317535 
	C248.366196,226.902603 248.624680,227.190491 248.901413,227.809265 
	C249.973068,230.097397 251.026474,232.054657 252.069000,234.287476 
	C252.358276,234.755478 252.658417,234.947968 252.980347,235.497070 
	C256.093201,240.588287 259.154724,245.342529 262.286346,250.050125 
	C264.195404,252.919922 265.916077,255.995026 268.246429,258.486847 
	C272.315552,262.837769 276.789581,266.809998 280.742981,270.967224 
	C279.670380,271.638184 278.838104,272.194641 278.243195,272.940430 
	C261.500885,293.928009 244.782608,314.934723 228.060379,335.938293 
	C223.939667,341.588806 219.985321,347.370239 215.662704,352.861786 
	C207.344940,363.428833 198.780609,373.801361 190.388840,384.310699 
	C180.366623,396.861877 170.414215,409.468811 160.440475,422.058655 
	C157.989609,425.152344 155.972137,428.737091 153.037323,431.261108 
	C149.594116,434.222443 145.367279,436.272583 141.003296,438.560760 
	C137.651199,438.938965 134.792053,439.812744 131.898163,439.948914 
	C121.457359,440.440369 110.997093,440.536224 100.560181,441.085449 
	C95.682625,441.342133 90.841667,442.294281 85.803024,443.004395 
	C85.621918,443.077515 85.232445,443.047485 85.232445,443.047485 
	C85.024521,443.001434 84.816605,442.955414 83.977219,442.597626 
	C73.583054,442.195404 63.820362,442.103760 54.057640,442.014954 
	C50.156357,441.979462 46.251099,442.042236 42.355453,441.876740 
	C40.560814,441.800507 38.784927,441.282928 37.000534,440.965454 
z"/>
<path fill="#229789" opacity="1.000000" stroke="none" 
	d="
M226.031342,176.786774 
	C222.369080,181.831772 218.885574,187.018677 215.013412,191.897079 
	C198.623184,212.546661 182.120270,233.106827 165.642532,253.686859 
	C165.025787,254.457153 164.242920,255.094421 163.237183,255.965240 
	C157.691895,249.935898 152.342560,243.819519 147.228973,237.512054 
	C141.218536,230.098373 135.454147,222.485779 129.504410,215.022156 
	C125.156273,209.567642 120.681015,204.214478 116.152573,198.158493 
	C115.666359,197.338318 115.290001,197.175766 114.913651,197.013214 
	C114.913651,197.013214 114.986870,197.012131 115.032707,196.692963 
	C114.690620,196.262238 114.302704,196.150665 113.914780,196.039093 
	C113.914780,196.039093 113.986305,196.013123 114.093231,195.668716 
	C113.772415,195.234085 113.344673,195.143860 112.916931,195.053619 
	C112.916931,195.053619 113.000816,195.004593 113.221512,194.726334 
	C112.267227,193.315414 111.092247,192.182739 109.917274,191.050079 
	C109.917274,191.050079 109.988083,191.009979 110.104294,190.663055 
	C109.786301,190.229218 109.352104,190.142319 108.917908,190.055420 
	C108.917908,190.055420 109.001419,190.004761 109.240509,189.740845 
	C108.623505,188.658401 107.767418,187.839890 106.911331,187.021378 
	C106.911324,187.021378 106.983765,187.014038 107.050331,186.685486 
	C106.716278,186.252991 106.315659,186.149048 105.915031,186.045120 
	C105.915031,186.045120 105.987793,186.012100 106.103561,185.668793 
	C105.785049,185.234726 105.350777,185.143951 104.916496,185.053177 
	C104.916496,185.053177 104.986298,184.996704 105.243271,184.812943 
	C104.773613,183.821121 104.046997,183.013077 103.320374,182.205017 
	C95.607010,172.699310 87.893654,163.193604 80.037125,153.036209 
	C79.568153,152.269913 79.242348,152.155289 78.916550,152.040680 
	C78.916550,152.040680 78.986946,152.013138 79.082962,151.673187 
	C78.758064,151.239243 78.337143,151.145279 77.916229,151.051300 
	C77.916229,151.051300 77.999901,151.004883 78.214691,150.726562 
	C76.927269,148.985397 75.425049,147.522552 73.922829,146.059723 
	C73.922829,146.059723 73.997803,145.999130 74.209824,145.724426 
	C73.585678,144.638641 72.749504,143.827545 71.913338,143.016449 
	C71.913338,143.016449 71.985664,143.012192 72.048935,142.688080 
	C71.713097,142.256149 71.313995,142.148315 70.914894,142.040497 
	C70.914894,142.040497 70.992508,142.006241 71.171967,141.726212 
	C70.542557,140.624100 69.733681,139.802017 68.924805,138.979935 
	C68.924805,138.979935 69.009682,138.934616 68.845596,138.959763 
	C68.450386,138.821564 68.331947,138.598541 68.326172,138.315811 
	C67.299507,137.151291 66.272842,135.986771 65.138199,134.164185 
	C64.657745,133.343506 64.285255,133.180923 63.912773,133.018341 
	C63.912773,133.018341 63.984776,133.012604 64.055901,132.683212 
	C63.723373,132.251968 63.319717,132.150116 62.916058,132.048264 
	C62.916058,132.048264 62.995865,132.005417 63.170387,131.714050 
	C62.200954,130.292313 61.056995,129.161942 59.913040,128.031586 
	C59.913040,128.031586 59.984116,128.014099 60.053131,127.688248 
	C59.719711,127.257065 59.317284,127.151718 58.914852,127.046379 
	C58.914852,127.046379 58.995197,127.006310 59.170761,126.715881 
	C58.203159,125.291336 57.059990,124.157234 55.916824,123.023125 
	C55.916824,123.023125 55.987347,123.012222 56.045010,122.688660 
	C55.707340,122.256943 55.312008,122.148796 54.916679,122.040642 
	C54.916679,122.040642 54.992313,122.005966 55.167206,121.710022 
	C53.276073,118.641998 51.210052,115.869926 49.144035,113.097855 
	C44.109776,106.622963 39.075516,100.148064 33.842896,92.953079 
	C30.415747,87.368874 32.123028,82.252571 32.875698,77.185043 
	C34.656517,75.473839 36.437340,73.762642 39.036438,72.019646 
	C56.013321,71.993179 72.172997,71.884872 88.330193,72.038322 
	C102.286995,72.170868 116.240974,72.600990 130.536255,72.822075 
	C134.098999,73.466850 137.343796,74.104935 140.536011,74.943253 
	C142.421204,75.438324 144.223175,76.250336 146.062561,76.919823 
	C146.062561,76.919823 145.998138,76.994385 145.819229,77.285866 
	C146.067001,77.834602 146.493683,78.091866 146.920380,78.349121 
	C156.252380,89.534172 165.584427,100.719193 174.916367,111.904297 
	C179.206741,117.046661 183.568146,122.131729 187.772125,127.343765 
	C196.229385,137.828979 204.634644,148.356659 212.992630,158.921173 
	C216.849884,163.796783 220.545578,168.800217 224.662048,174.236084 
	C225.350159,175.413239 225.690750,176.100006 226.031342,176.786774 
z"/>
<path fill="#229789" opacity="1.000000" stroke="none" 
	d="
M228.364838,336.093628 
	C244.782608,314.934723 261.500885,293.928009 278.243195,272.940430 
	C278.838104,272.194641 279.670380,271.638184 281.075439,271.047546 
	C288.750854,275.768311 295.742950,280.435059 302.735016,285.101807 
	C307.209747,287.425873 311.862091,289.468658 316.110535,292.151093 
	C320.584076,294.975616 325.226532,297.890808 328.800323,301.699799 
	C334.443542,307.714417 339.357422,314.430511 344.395844,320.991150 
	C351.098389,329.718628 357.467407,338.705872 364.295013,347.331970 
	C367.486969,351.364746 371.523315,354.718536 374.963867,358.570404 
	C376.364563,360.138519 377.019043,362.352386 378.324310,364.030243 
	C382.877777,369.883423 387.531158,375.660248 392.217102,381.408600 
	C395.636169,385.602844 399.226898,389.657562 402.630096,393.864258 
	C406.218353,398.299744 409.602295,402.901306 413.217072,407.314301 
	C415.280365,409.833252 417.626007,412.120911 420.188354,414.879578 
	C420.867615,415.393158 421.020599,415.648743 420.991150,416.013306 
	C420.991150,416.013306 420.995361,415.999573 421.069061,416.379211 
	C421.786469,417.150940 422.430206,417.543060 423.073914,417.935211 
	C423.073914,417.935211 423.004120,417.999451 422.825287,418.316071 
	C426.664795,424.360077 426.312439,430.659302 425.059357,437.076324 
	C425.059357,437.076324 425.007080,436.997009 424.754272,436.797607 
	C423.084198,437.749176 421.666962,438.900146 419.843079,440.062134 
	C415.402130,440.715118 411.383759,441.749023 407.330078,441.913910 
	C399.895691,442.216370 392.440460,442.006226 384.531616,442.004578 
	C375.481476,441.666595 366.896118,441.210052 358.305054,441.036469 
	C350.009705,440.868835 341.645325,441.616913 333.430359,440.785767 
	C327.191925,440.154572 320.916534,438.225250 315.078278,435.842743 
	C310.625366,434.025513 306.831970,430.592194 302.745178,427.877838 
	C299.583984,423.936951 296.422791,419.996063 292.806885,415.794250 
	C292.166962,415.419159 292.104340,415.257568 292.164307,415.048584 
	C291.836273,414.956696 291.508240,414.864838 291.134735,414.147919 
	C290.695892,413.357269 290.302521,413.191681 289.909149,413.026062 
	C289.909149,413.026093 289.982330,413.016052 290.071655,412.674316 
	C289.746216,412.239502 289.331482,412.146393 288.916748,412.053284 
	C288.916748,412.053284 288.990845,412.009125 289.120117,411.656616 
	C288.805939,411.222351 288.362518,411.140594 287.919067,411.058838 
	C287.919067,411.058838 287.991913,410.998413 288.265747,410.752686 
	C286.331238,408.017609 284.122864,405.528229 281.914520,403.038879 
	C281.914520,403.038879 281.984924,403.014191 282.066010,402.677826 
	C281.736664,402.244324 281.326233,402.147186 280.915802,402.050049 
	C280.915802,402.050018 281.001221,402.006195 281.231140,401.784912 
	C280.704681,400.724976 279.948273,399.886353 279.191864,399.047729 
	C274.347687,393.078522 269.414917,387.178589 264.680969,381.123199 
	C258.232025,372.874084 252.047272,364.416931 245.532211,356.221497 
	C241.319199,350.921875 236.705154,345.941772 232.298874,340.794464 
	C231.038712,339.322357 229.876434,337.766418 228.364838,336.093628 
z"/>
<path fill="#E7E6E2" opacity="1.000000" stroke="none" 
	d="
M302.893921,284.771759 
	C295.742950,280.435059 288.750854,275.768311 281.426361,271.021240 
	C276.789581,266.809998 272.315552,262.837769 268.246429,258.486847 
	C265.916077,255.995026 264.195404,252.919922 262.286346,250.050125 
	C259.154724,245.342529 256.093201,240.588287 252.902832,235.260193 
	C252.651672,234.349655 252.410461,234.131424 252.079880,234.011932 
	C251.026474,232.054657 249.973068,230.097397 248.858353,227.521881 
	C248.562180,226.609207 248.327301,226.314774 248.092438,226.020355 
	C247.689651,225.260590 247.286865,224.500854 247.120850,223.240936 
	C246.581421,221.495316 245.805206,220.249863 245.029007,219.004410 
	C245.029007,219.004410 244.811584,218.779434 244.876312,218.189758 
	C242.998627,212.403091 241.056213,207.206085 239.113800,202.009094 
	C238.988892,201.599548 238.863983,201.190018 238.990433,200.311096 
	C238.865173,199.231537 238.488556,198.621338 238.111923,198.011139 
	C237.996552,197.592926 237.881180,197.174713 238.056091,196.251495 
	C237.919128,194.833023 237.491898,193.919556 237.064697,193.006073 
	C236.932236,192.600769 236.799774,192.195450 236.972443,191.294891 
	C236.889297,189.869812 236.501022,188.939972 236.112762,188.010132 
	C236.018997,187.572189 235.925247,187.134232 236.171524,186.117737 
	C235.702347,182.029434 234.893127,178.519684 234.083908,175.009918 
	C234.083908,175.009918 233.873215,174.690094 233.917236,174.052963 
	C233.955231,172.223343 233.949173,171.030869 233.943130,169.838379 
	C233.943130,169.838379 233.961746,169.398102 234.243439,169.065186 
	C234.755035,168.489227 234.893967,168.202148 234.941925,167.871017 
	C234.296951,153.441650 236.233063,139.309189 241.174103,125.794968 
	C243.780945,118.665001 247.837616,112.065125 251.901382,104.964172 
	C253.358414,103.079506 254.153748,101.456596 254.949097,99.833687 
	C254.932190,99.484825 255.073868,99.221199 256.001221,99.019012 
	C259.714661,98.418976 261.869690,97.245979 260.108307,93.563705 
	C260.108307,93.563705 260.289001,93.222176 260.697388,93.427017 
	C265.219940,92.458946 269.334076,91.286034 273.448242,90.113129 
	C273.448242,90.113129 273.717072,90.271667 273.549561,90.808456 
	C273.274902,92.597961 273.167755,93.850670 273.040955,95.424332 
	C272.971985,96.169189 272.922638,96.593109 272.615387,97.235504 
	C272.291901,99.423141 272.226318,101.392296 272.139526,103.549042 
	C272.118317,103.736641 271.850677,104.003014 271.511475,104.069153 
	C270.794769,105.127632 270.417267,106.119972 270.004303,107.357094 
	C269.968842,107.601875 269.669464,107.995651 269.350647,108.078522 
	C268.701385,109.131172 268.370941,110.100952 268.020081,111.043900 
	C267.999634,111.017067 268.066956,111.021538 267.736877,111.173363 
	C266.965912,112.633087 266.525024,113.940994 266.074280,115.463470 
	C266.064362,115.678040 265.810608,116.024689 265.609009,116.196671 
	C265.302460,116.701927 265.197510,117.035210 265.109467,117.538406 
	C265.126373,117.708336 264.915344,117.976891 264.559937,118.058258 
	C263.810394,119.453468 263.416229,120.767311 262.998413,122.311844 
	C262.974701,122.542534 262.841461,122.986786 262.489960,123.072739 
	C260.092102,130.744843 257.721802,138.264084 256.135651,145.945267 
	C255.338974,149.803406 255.968567,153.956070 256.017151,158.356903 
	C256.019989,159.505890 255.958832,160.273483 255.632309,161.315765 
	C255.557114,164.049377 255.747269,166.508316 256.026855,169.361786 
	C256.125854,170.832001 256.135468,171.907684 255.951584,173.077835 
	C255.915710,173.459274 256.073334,173.746262 256.371033,174.412262 
	C258.282043,183.345856 260.053009,191.900406 261.823975,200.454956 
	C265.977631,215.250641 272.836578,228.665939 282.645599,241.197739 
	C283.074799,241.956238 283.302429,242.140869 283.606018,242.231827 
	C284.890137,243.711578 286.174225,245.191330 287.724548,247.158783 
	C288.169312,247.938751 288.427643,248.112289 288.765717,248.167084 
	C289.619843,249.055481 290.473999,249.943878 291.638916,251.271683 
	C292.137482,251.987366 292.394745,252.160187 292.721497,252.229553 
	C292.944946,252.458847 293.170593,252.685959 293.654633,253.369873 
	C294.536133,254.277313 295.161469,254.725769 295.786774,255.174225 
	C295.786774,255.174225 295.899200,255.078506 295.928894,255.476105 
	C297.917572,257.315155 299.876587,258.756622 301.835602,260.198090 
	C302.107086,260.343536 302.352722,260.524139 302.783325,261.255615 
	C304.305420,262.540527 305.616730,263.309692 306.928070,264.078857 
	C306.928070,264.078857 307.001221,264.008728 307.012268,264.372375 
	C307.741302,265.073822 308.459351,265.411621 309.177368,265.749420 
	C309.177368,265.749420 309.068085,265.875641 309.205017,266.173523 
	C310.619293,268.053314 311.896698,269.635254 313.174072,271.217163 
	C313.076111,271.527222 312.893158,271.774384 312.054199,271.999146 
	C308.911041,272.363647 308.120148,273.733429 309.080841,276.131561 
	C309.080841,276.131561 309.048981,276.043335 308.690338,276.030518 
	C303.920868,276.261810 305.262268,279.598114 305.059662,282.104431 
	C304.390717,282.883545 303.721771,283.662628 302.893921,284.771759 
z"/>
<path fill="#1B8361" opacity="1.000000" stroke="none" 
	d="
M488.005737,207.012451 
	C489.477386,200.745834 491.047424,194.500443 492.403351,188.208908 
	C497.935211,162.540741 494.652710,137.856064 484.022430,113.996109 
	C483.159637,112.059547 482.652740,109.964417 481.970551,107.562698 
	C484.328552,111.306786 487.217041,115.221962 488.973389,119.592125 
	C496.165253,137.486984 498.378876,156.330292 496.769958,175.330688 
	C495.887482,185.751938 492.367462,195.949844 489.660095,206.617462 
	C488.857574,206.995117 488.431641,207.003784 488.005737,207.012451 
z"/>
<path fill="#D4E9E2" opacity="1.000000" stroke="none" 
	d="
M423.962952,52.623123 
	C418.031830,51.449005 412.038788,49.625835 405.919739,48.470276 
	C398.284363,47.028381 390.563934,45.974903 382.842529,45.078308 
	C379.230621,44.658905 375.530273,45.001396 370.945679,45.014008 
	C359.808899,44.467972 349.943024,45.999153 340.473419,49.923019 
	C336.899048,51.280754 333.324677,52.638489 329.366699,53.946106 
	C331.143677,52.308380 333.082886,50.084824 335.502869,49.242290 
	C346.492340,45.416229 357.769257,43.208584 369.518219,42.884129 
	C386.537842,42.414124 403.176544,43.809677 419.191833,49.956867 
	C420.801758,50.574806 422.296783,51.492027 423.962952,52.623123 
z"/>
<path fill="#26887C" opacity="1.000000" stroke="none" 
	d="
M302.484070,428.057373 
	C306.831970,430.592194 310.625366,434.025513 315.078278,435.842743 
	C320.916534,438.225250 327.191925,440.154572 333.430359,440.785767 
	C341.645325,441.616913 350.009705,440.868835 358.305054,441.036469 
	C366.896118,441.210052 375.481476,441.666595 384.541626,442.196777 
	C385.013947,442.394196 385.034943,442.778748 384.615112,442.844177 
	C382.783691,442.980835 381.372131,443.052124 379.496338,443.080109 
	C368.689911,443.020569 358.347717,443.004333 347.689789,442.724548 
	C339.893799,442.320740 332.413483,442.180420 324.933197,442.040100 
	C324.933197,442.040100 324.995270,442.010132 324.973877,441.750641 
	C324.314667,441.618683 323.676819,441.746185 323.038971,441.873688 
	C314.640411,439.556580 307.541779,435.255127 302.484070,428.057373 
z"/>
<path fill="#0D151C" opacity="1.000000" stroke="none" 
	d="
M37.164642,441.287964 
	C38.784927,441.282928 40.560814,441.800507 42.355453,441.876740 
	C46.251099,442.042236 50.156357,441.979462 54.057640,442.014954 
	C63.820362,442.103760 73.583054,442.195404 83.663773,442.536072 
	C82.010201,443.130951 80.048752,443.690643 78.065346,443.784058 
	C68.185051,444.249451 58.294647,444.930481 48.417183,444.803894 
	C44.708008,444.756378 41.024151,442.733032 37.164642,441.287964 
z"/>
<path fill="#388D70" opacity="1.000000" stroke="none" 
	d="
M487.725464,207.220047 
	C488.431641,207.003784 488.857574,206.995117 489.602661,207.000854 
	C484.029236,222.731003 475.881897,237.024399 463.301025,248.832123 
	C464.891693,246.157745 466.629547,243.237411 468.728424,240.604935 
	C476.752594,230.540649 482.501648,219.216904 487.725464,207.220047 
z"/>
<path fill="#0D151C" opacity="1.000000" stroke="none" 
	d="
M85.984123,442.931244 
	C90.841667,442.294281 95.682625,441.342133 100.560181,441.085449 
	C110.997093,440.536224 121.457359,440.440369 131.898163,439.948914 
	C134.792053,439.812744 137.651199,438.938965 140.762665,438.669922 
	C137.029114,440.245636 133.140839,442.037659 129.065994,442.727203 
	C125.074043,443.402679 120.892143,442.955627 115.895233,442.985107 
	C105.325943,442.956390 95.655029,442.943817 85.984123,442.931244 
z"/>
<path fill="#14796C" opacity="1.000000" stroke="none" 
	d="
M130.196198,72.899559 
	C116.240974,72.600990 102.286995,72.170868 88.330193,72.038322 
	C72.172997,71.884872 56.013321,71.993179 39.378967,71.966400 
	C41.714626,71.294937 44.526039,70.644936 48.097977,70.302505 
	C60.572845,70.664818 72.287193,70.719559 84.469055,70.826187 
	C93.645294,70.846451 102.354004,70.814835 111.524948,70.827988 
	C116.728706,70.928658 121.477783,70.852699 126.207001,71.123528 
	C127.566177,71.201363 128.868042,72.279861 130.196198,72.899559 
z"/>
<path fill="#A1ADA4" opacity="1.000000" stroke="none" 
	d="
M313.534180,271.196472 
	C311.896698,269.635254 310.619293,268.053314 309.276794,266.130920 
	C312.565094,267.552338 315.803101,269.597565 319.294556,271.020966 
	C328.315826,274.698822 337.452362,278.093567 346.532990,281.626801 
	C347.574219,282.031891 348.552917,282.597748 349.635559,283.404388 
	C336.774323,282.386353 325.467163,276.401733 313.534180,271.196472 
z"/>
<path fill="#A1ADA4" opacity="1.000000" stroke="none" 
	d="
M364.098022,286.408691 
	C376.385925,285.312439 388.876831,284.611755 401.743378,283.957458 
	C398.164734,285.031097 394.241486,286.765167 390.249847,286.940216 
	C381.618835,287.318695 372.952789,286.898041 364.098022,286.408691 
z"/>
<path fill="#D9ECE6" opacity="1.000000" stroke="none" 
	d="
M130.536255,72.822075 
	C128.868042,72.279861 127.566177,71.201363 126.207001,71.123528 
	C121.477783,70.852699 116.728706,70.928658 111.526382,70.678444 
	C111.065582,70.484138 111.045670,70.185669 111.045670,70.185669 
	C120.006500,70.693283 129.191437,68.091301 137.898514,71.967598 
	C140.638809,73.187546 143.202042,74.805183 145.954437,76.580315 
	C144.223175,76.250336 142.421204,75.438324 140.536011,74.943253 
	C137.343796,74.104935 134.098999,73.466850 130.536255,72.822075 
z"/>
<path fill="#E3F1EC" opacity="1.000000" stroke="none" 
	d="
M272.160767,103.361450 
	C272.226318,101.392296 272.291901,99.423141 272.787994,97.545303 
	C273.471588,96.730476 273.724640,95.824348 274.001678,94.972626 
	C274.025696,95.027039 273.924866,95.090141 273.924866,95.090141 
	C276.599152,92.453171 279.304718,89.846764 281.930267,87.162132 
	C282.811493,86.261055 283.489014,85.160736 284.585419,84.048508 
	C284.166748,85.832375 283.700500,87.898346 282.623474,89.571083 
	C279.863007,93.858383 276.831085,97.970894 273.622986,102.583427 
	C272.945770,103.129517 272.553284,103.245483 272.160767,103.361450 
z"/>
<path fill="#D9ECE6" opacity="1.000000" stroke="none" 
	d="
M465.036377,81.583832 
	C464.411133,81.801796 463.548431,81.889717 463.139374,81.500641 
	C458.310059,76.907372 453.548523,72.242790 448.906097,67.256332 
	C454.365234,71.687874 459.687469,76.460037 465.036377,81.583832 
z"/>
<path fill="#14796C" opacity="1.000000" stroke="none" 
	d="
M385.034943,442.778748 
	C385.034943,442.778748 385.013947,442.394196 385.003906,442.202026 
	C392.440460,442.006226 399.895691,442.216370 407.330078,441.913910 
	C411.383759,441.749023 415.402130,440.715118 419.756012,440.294617 
	C420.075623,440.516113 420.027405,441.009979 420.027405,441.009979 
	C419.252960,441.669586 418.478546,442.329193 416.903839,442.941589 
	C405.747375,442.855804 395.391144,442.817291 385.034943,442.778748 
z"/>
<path fill="#ABCFC9" opacity="1.000000" stroke="none" 
	d="
M384.615112,442.844177 
	C395.391144,442.817291 405.747375,442.855804 416.572083,442.955963 
	C415.908905,443.349396 414.779236,443.961334 413.645203,443.969482 
	C402.731720,444.048157 391.817535,444.025146 380.447021,443.760620 
	C379.990540,443.490082 379.960541,443.123383 379.960541,443.123383 
	C381.372131,443.052124 382.783691,442.980835 384.615112,442.844177 
z"/>
<path fill="#FFFFFF" opacity="1.000000" stroke="none" 
	d="
M273.239075,89.803207 
	C269.334076,91.286034 265.219940,92.458946 260.875183,93.351425 
	C263.735382,90.167549 266.899536,87.368271 271.593628,88.061653 
	C272.131134,88.141052 272.553955,88.997261 273.239075,89.803207 
z"/>
<path fill="#A1ADA4" opacity="1.000000" stroke="none" 
	d="
M84.001534,70.774307 
	C72.287193,70.719559 60.572845,70.664818 48.534119,70.393921 
	C59.831768,70.120033 71.453804,70.062294 83.544510,70.240067 
	C84.013176,70.475578 84.001534,70.774307 84.001534,70.774307 
z"/>
<path fill="#D4E9E2" opacity="1.000000" stroke="none" 
	d="
M32.476440,77.105515 
	C32.123028,82.252571 30.415747,87.368874 33.765854,92.599419 
	C32.975716,92.812523 31.627361,92.986946 31.225519,92.451302 
	C29.035841,89.532494 29.669666,80.200844 32.476440,77.105515 
z"/>
<path fill="#D9ECE6" opacity="1.000000" stroke="none" 
	d="
M476.058960,94.589516 
	C473.629211,92.562851 471.102448,90.242668 468.747375,87.759628 
	C467.217041,86.146141 465.936920,84.295341 464.802277,82.241730 
	C468.718201,86.030693 472.376526,90.128799 476.058960,94.589516 
z"/>
<path fill="#D4E9E2" opacity="1.000000" stroke="none" 
	d="
M379.496338,443.080109 
	C379.960541,443.123383 379.990540,443.490082 379.984039,443.673920 
	C369.647736,443.906830 359.317902,443.955902 348.529053,443.700836 
	C348.069977,443.396667 348.005493,442.988068 348.005493,442.988068 
	C358.347717,443.004333 368.689911,443.020569 379.496338,443.080109 
z"/>
<path fill="#ABCFC9" opacity="1.000000" stroke="none" 
	d="
M85.803024,443.004395 
	C95.655029,442.943817 105.325943,442.956390 115.459984,442.995056 
	C115.140282,443.362854 114.357605,444.000732 113.574600,444.001129 
	C104.220360,444.005920 94.866058,443.916016 85.372116,443.449158 
	C85.232445,443.047485 85.621918,443.077515 85.803024,443.004395 
z"/>
<path fill="#ABCFC9" opacity="1.000000" stroke="none" 
	d="
M347.689789,442.724548 
	C348.005493,442.988068 348.069977,443.396667 348.074402,443.603638 
	C340.485931,443.489288 332.893036,443.167999 325.116669,442.443420 
	C332.413483,442.180420 339.893799,442.320740 347.689789,442.724548 
z"/>
<path fill="#E3F1EC" opacity="1.000000" stroke="none" 
	d="
M295.592285,73.042877 
	C295.620239,76.308830 290.326233,82.191483 285.191223,84.247932 
	C288.388153,80.320663 291.830841,76.730232 295.592285,73.042877 
z"/>
<path fill="#E3F1EC" opacity="1.000000" stroke="none" 
	d="
M425.431091,436.913818 
	C426.312439,430.659302 426.664795,424.360077 422.852539,418.277344 
	C428.804321,423.494324 427.557617,430.085785 425.431091,436.913818 
z"/>
<path fill="#ABCFC9" opacity="1.000000" stroke="none" 
	d="
M84.469055,70.826187 
	C84.001534,70.774307 84.013176,70.475578 84.006020,70.326263 
	C92.705276,70.116676 101.411682,70.056412 110.581879,70.090912 
	C111.045670,70.185669 111.065582,70.484138 111.064148,70.633682 
	C102.354004,70.814835 93.645294,70.846451 84.469055,70.826187 
z"/>
<path fill="#EDEEEE" opacity="1.000000" stroke="none" 
	d="
M233.604080,170.005417 
	C233.949173,171.030869 233.955231,172.223343 233.925781,173.861664 
	C231.505325,175.129288 229.120346,175.951096 226.383362,176.779831 
	C225.690750,176.100006 225.350159,175.413239 224.933350,174.444489 
	C227.659760,172.832474 230.462387,171.502472 233.604080,170.005417 
z"/>
<path fill="#D9ECE6" opacity="1.000000" stroke="none" 
	d="
M434.945496,57.599949 
	C431.897614,56.755310 428.721954,55.569019 425.277100,53.954391 
	C425.007843,53.526051 425.003265,53.163750 425.003265,53.163750 
	C428.274750,54.528595 431.546265,55.893448 434.945496,57.599949 
z"/>
<path fill="#D9ECE6" opacity="1.000000" stroke="none" 
	d="
M444.958557,63.588234 
	C441.613129,62.147915 438.164032,60.370403 434.882263,58.256096 
	C438.318024,59.696545 441.586456,61.473793 444.958557,63.588234 
z"/>
<path fill="#D4E9E2" opacity="1.000000" stroke="none" 
	d="
M49.081059,113.464561 
	C51.210052,115.869926 53.276073,118.641998 55.142094,121.743187 
	C52.967422,119.325294 50.992752,116.578285 49.081059,113.464561 
z"/>
<path fill="#FFFFFF" opacity="1.000000" stroke="none" 
	d="
M305.441498,282.052063 
	C305.262268,279.598114 303.920868,276.261810 308.734283,276.046936 
	C308.032349,278.050659 306.927856,280.025177 305.441498,282.052063 
z"/>
<path fill="#D9ECE6" opacity="1.000000" stroke="none" 
	d="
M281.941284,403.395447 
	C284.122864,405.528229 286.331238,408.017609 288.226501,410.781982 
	C285.931610,408.622009 283.949799,406.187012 281.941284,403.395447 
z"/>
<path fill="#FFFFFF" opacity="1.000000" stroke="none" 
	d="
M259.860046,93.751999 
	C261.869690,97.245979 259.714661,98.418976 256.230896,98.972229 
	C257.092926,97.279587 258.352356,95.609947 259.860046,93.751999 
z"/>
<path fill="#388D70" opacity="1.000000" stroke="none" 
	d="
M458.256958,254.912079 
	C459.034485,253.291519 460.163910,251.676941 461.617493,250.026062 
	C460.830688,251.632523 459.719788,253.275299 458.256958,254.912079 
z"/>
<path fill="#D9ECE6" opacity="1.000000" stroke="none" 
	d="
M73.943169,146.404022 
	C75.425049,147.522552 76.927269,148.985397 78.178192,150.757660 
	C76.605759,149.627502 75.284637,148.187912 73.943169,146.404022 
z"/>
<path fill="#E3F1EC" opacity="1.000000" stroke="none" 
	d="
M420.400452,441.000092 
	C420.027405,441.009979 420.075623,440.516113 420.162659,440.283630 
	C421.666962,438.900146 423.084198,437.749176 424.786194,436.833405 
	C423.638458,438.375793 422.205994,439.683014 420.400452,441.000092 
z"/>
<path fill="#FFFFFF" opacity="1.000000" stroke="none" 
	d="
M254.631378,99.989456 
	C254.153748,101.456596 253.358414,103.079506 252.229919,104.820312 
	C252.702408,103.340553 253.508041,101.742889 254.631378,99.989456 
z"/>
<path fill="#D4E9E2" opacity="1.000000" stroke="none" 
	d="
M59.938683,128.373779 
	C61.056995,129.161942 62.200954,130.292313 63.139854,131.747498 
	C61.944633,130.953537 60.954475,129.834747 59.938683,128.373779 
z"/>
<path fill="#D9ECE6" opacity="1.000000" stroke="none" 
	d="
M109.940735,191.389938 
	C111.092247,192.182739 112.267227,193.315414 113.183701,194.757187 
	C111.938194,193.954132 110.951195,192.841965 109.940735,191.389938 
z"/>
<path fill="#D4E9E2" opacity="1.000000" stroke="none" 
	d="
M55.942570,123.365845 
	C57.059990,124.157234 58.203159,125.291336 59.140533,126.749069 
	C57.945930,125.951324 56.957123,124.829948 55.942570,123.365845 
z"/>
<path fill="#FFFFFF" opacity="1.000000" stroke="none" 
	d="
M309.401428,275.967163 
	C308.120148,273.733429 308.911041,272.363647 311.824799,272.045258 
	C311.351593,273.301483 310.536804,274.552124 309.401428,275.967163 
z"/>
<path fill="#E3F1EC" opacity="1.000000" stroke="none" 
	d="
M299.611664,71.064430 
	C298.779541,71.951500 297.594269,72.769958 296.178650,73.248932 
	C297.051697,72.271561 298.155090,71.633690 299.611664,71.064430 
z"/>
<path fill="#FFFFFF" opacity="1.000000" stroke="none" 
	d="
M273.060608,95.103386 
	C273.167755,93.850670 273.274902,92.597961 273.631348,90.941353 
	C273.919067,91.828911 273.957458,93.120369 273.960358,94.750977 
	C273.924866,95.090141 274.025696,95.027039 273.770996,95.010635 
	C273.516296,94.994240 273.060608,95.103386 273.060608,95.103386 
z"/>
<path fill="#D9ECE6" opacity="1.000000" stroke="none" 
	d="
M478.063232,97.621506 
	C477.268860,97.170334 476.450867,96.383736 475.845612,95.261063 
	C476.718781,95.712036 477.379211,96.499062 478.063232,97.621506 
z"/>
<path fill="#D9ECE6" opacity="1.000000" stroke="none" 
	d="
M447.971588,65.601669 
	C446.939789,65.505684 445.817902,65.089981 444.873779,64.296013 
	C445.994873,64.372490 446.938202,64.827217 447.971588,65.601669 
z"/>
<path fill="#D9ECE6" opacity="1.000000" stroke="none" 
	d="
M279.096161,399.371521 
	C279.948273,399.886353 280.704681,400.724976 281.189758,401.810791 
	C280.279114,401.270447 279.639801,400.482910 279.096161,399.371521 
z"/>
<path fill="#D9ECE6" opacity="1.000000" stroke="none" 
	d="
M106.940887,187.356613 
	C107.767418,187.839890 108.623505,188.658401 109.200127,189.769623 
	C108.270592,189.272186 107.620514,188.482010 106.940887,187.356613 
z"/>
<path fill="#D9ECE6" opacity="1.000000" stroke="none" 
	d="
M68.960037,139.319275 
	C69.733681,139.802017 70.542557,140.624100 71.145195,141.759109 
	C70.291061,141.267563 69.643173,140.463089 68.960037,139.319275 
z"/>
<path fill="#D9ECE6" opacity="1.000000" stroke="none" 
	d="
M71.944733,143.352631 
	C72.749504,143.827545 73.585678,144.638641 74.176208,145.758698 
	C73.279099,145.274719 72.627617,144.481766 71.944733,143.352631 
z"/>
<path fill="#D9ECE6" opacity="1.000000" stroke="none" 
	d="
M103.429176,182.483673 
	C104.046997,183.013077 104.773613,183.821121 105.204712,184.839966 
	C104.452118,184.287933 103.995049,183.525116 103.429176,182.483673 
z"/>
<path fill="#E3F1EC" opacity="1.000000" stroke="none" 
	d="
M423.000610,417.647217 
	C422.430206,417.543060 421.786469,417.150940 421.060944,416.382141 
	C421.628540,416.456726 422.277924,416.907990 423.000610,417.647217 
z"/>
<path fill="#D9ECE6" opacity="1.000000" stroke="none" 
	d="
M478.804993,100.480743 
	C478.325409,99.994804 477.912109,99.174225 477.792023,98.152313 
	C478.347229,98.682693 478.609253,99.414391 478.804993,100.480743 
z"/>
<path fill="#ABCFC9" opacity="1.000000" stroke="none" 
	d="
M323.361389,441.928284 
	C323.676819,441.746185 324.314667,441.618683 324.968933,441.784760 
	C324.551514,442.046570 324.117645,442.014740 323.361389,441.928284 
z"/>
<path fill="#D9ECE6" opacity="1.000000" stroke="none" 
	d="
M288.971863,412.323761 
	C289.331482,412.146393 289.746216,412.239502 290.061707,412.709900 
	C289.650635,412.922913 289.338837,412.758575 288.971863,412.323761 
z"/>
<path fill="#D4E9E2" opacity="1.000000" stroke="none" 
	d="
M424.758392,53.090950 
	C425.003265,53.163750 425.007843,53.526051 425.018494,53.706627 
	C424.671753,53.759045 424.314423,53.630886 423.985077,53.208855 
	C424.179901,52.949368 424.346710,52.983761 424.758392,53.090950 
z"/>
<path fill="#D9ECE6" opacity="1.000000" stroke="none" 
	d="
M77.971298,151.322174 
	C78.337143,151.145279 78.758064,151.239243 79.071129,151.709076 
	C78.650970,151.920975 78.338661,151.757019 77.971298,151.322174 
z"/>
<path fill="#D4E9E2" opacity="1.000000" stroke="none" 
	d="
M54.984993,122.305923 
	C55.312008,122.148796 55.707340,122.256943 56.039803,122.723953 
	C55.669056,122.912277 55.361179,122.741745 54.984993,122.305923 
z"/>
<path fill="#D9ECE6" opacity="1.000000" stroke="none" 
	d="
M104.970901,185.322464 
	C105.350777,185.143951 105.785049,185.234726 106.086937,185.705139 
	C105.644798,185.920425 105.335052,185.756088 104.970901,185.322464 
z"/>
<path fill="#D9ECE6" opacity="1.000000" stroke="none" 
	d="
M280.976196,402.318237 
	C281.326233,402.147186 281.736664,402.244324 282.056824,402.713989 
	C281.656555,402.919800 281.346588,402.753082 280.976196,402.318237 
z"/>
<path fill="#D4E9E2" opacity="1.000000" stroke="none" 
	d="
M58.973114,127.316986 
	C59.317284,127.151718 59.719711,127.257065 60.045322,127.723999 
	C59.656124,127.919601 59.343746,127.753601 58.973114,127.316986 
z"/>
<path fill="#D9ECE6" opacity="1.000000" stroke="none" 
	d="
M287.972656,411.326233 
	C288.362518,411.140594 288.805939,411.222351 289.098969,411.694214 
	C288.641113,411.920746 288.333679,411.757202 287.972656,411.326233 
z"/>
<path fill="#D9ECE6" opacity="1.000000" stroke="none" 
	d="
M289.981812,413.313965 
	C290.302521,413.191681 290.695892,413.357269 291.059265,413.890442 
	C290.704376,414.039307 290.379425,413.820587 289.981812,413.313965 
z"/>
<path fill="#D9ECE6" opacity="1.000000" stroke="none" 
	d="
M292.229370,415.157471 
	C292.104340,415.257568 292.166962,415.419159 292.482788,415.579987 
	C292.424896,415.579285 292.318542,415.459229 292.229370,415.157471 
z"/>
<path fill="#E3F1EC" opacity="1.000000" stroke="none" 
	d="
M420.872192,415.833740 
	C421.020599,415.648743 420.867615,415.393158 420.296143,415.234741 
	C420.387512,415.211761 420.618561,415.355499 420.872192,415.833740 
z"/>
<path fill="#D9ECE6" opacity="1.000000" stroke="none" 
	d="
M78.986168,152.311325 
	C79.242348,152.155289 79.568153,152.269913 79.956604,152.706818 
	C79.698105,152.880066 79.376945,152.731018 78.986168,152.311325 
z"/>
<path fill="#D9ECE6" opacity="1.000000" stroke="none" 
	d="
M449.027771,66.699501 
	C448.625183,66.859108 448.162964,66.752319 447.877838,66.281837 
	C448.359314,66.089798 448.663727,66.261444 449.027771,66.699501 
z"/>
<path fill="#EDEEEE" opacity="1.000000" stroke="none" 
	d="
M234.679703,167.953308 
	C234.893967,168.202148 234.755035,168.489227 234.317810,168.857788 
	C234.212830,168.667404 234.315155,168.351517 234.679703,167.953308 
z"/>
<path fill="#D9ECE6" opacity="1.000000" stroke="none" 
	d="
M113.982269,196.306458 
	C114.302704,196.150665 114.690620,196.262238 115.029648,196.729462 
	C114.670418,196.914658 114.360092,196.744232 113.982269,196.306458 
z"/>
<path fill="#D9ECE6" opacity="1.000000" stroke="none" 
	d="
M114.988129,197.297150 
	C115.290001,197.175766 115.666359,197.338318 116.042114,197.846588 
	C115.715210,197.988586 115.388908,197.784851 114.988129,197.297150 
z"/>
<path fill="#D9ECE6" opacity="1.000000" stroke="none" 
	d="
M70.979202,142.309082 
	C71.313995,142.148315 71.713097,142.256149 72.044510,142.724045 
	C71.665710,142.915283 71.354607,142.746475 70.979202,142.309082 
z"/>
<path fill="#D9ECE6" opacity="1.000000" stroke="none" 
	d="
M68.388542,138.484253 
	C68.331947,138.598541 68.450386,138.821564 68.876846,138.996338 
	C68.846817,138.921387 68.639725,138.803024 68.388542,138.484253 
z"/>
<path fill="#D9ECE6" opacity="1.000000" stroke="none" 
	d="
M146.958374,78.021881 
	C146.493683,78.091866 146.067001,77.834602 145.854218,77.252121 
	C146.377518,77.182816 146.686935,77.438728 146.958374,78.021881 
z"/>
<path fill="#D4E9E2" opacity="1.000000" stroke="none" 
	d="
M63.990921,133.296951 
	C64.285255,133.180923 64.657745,133.343506 65.028336,133.850342 
	C64.707314,133.988235 64.388191,133.781906 63.990921,133.296951 
z"/>
<path fill="#D4E9E2" opacity="1.000000" stroke="none" 
	d="
M62.968979,132.322601 
	C63.319717,132.150116 63.723373,132.251968 64.049362,132.718719 
	C63.655102,132.921417 63.338501,132.759186 62.968979,132.322601 
z"/>
<path fill="#D9ECE6" opacity="1.000000" stroke="none" 
	d="
M105.977936,186.313461 
	C106.315659,186.149048 106.716278,186.252991 107.044777,186.721466 
	C106.662048,186.917923 106.351440,186.749863 105.977936,186.313461 
z"/>
<path fill="#D9ECE6" opacity="1.000000" stroke="none" 
	d="
M108.972168,190.324493 
	C109.352104,190.142319 109.786301,190.229218 110.088150,190.700409 
	C109.646004,190.920975 109.336212,190.757263 108.972168,190.324493 
z"/>
<path fill="#D9ECE6" opacity="1.000000" stroke="none" 
	d="
M112.971741,195.323608 
	C113.344673,195.143860 113.772415,195.234085 114.080093,195.704422 
	C113.648857,195.920883 113.337700,195.757233 112.971741,195.323608 
z"/>
<path fill="#E7E7E3" opacity="1.000000" stroke="none" 
	d="
M336.679657,161.110641 
	C336.381348,161.048477 336.159241,160.883606 335.979736,160.018997 
	C335.561859,158.361313 335.186127,157.297501 334.791931,156.240570 
	C332.546387,150.219360 329.989838,144.298141 331.855469,137.571777 
	C333.382050,132.067932 334.585938,126.474594 335.932922,120.920937 
	C342.684265,110.513557 353.033478,106.143936 365.083527,104.037766 
	C365.083527,97.756569 365.083527,91.671265 365.083527,85.363708 
	C372.799347,85.363708 380.044312,85.363708 387.992737,85.363708 
	C387.992737,90.004585 388.165375,94.599075 387.935944,99.173409 
	C387.764557,102.590805 388.935120,104.304733 392.397034,105.024498 
	C408.063965,108.281822 417.923279,117.772766 421.728912,133.864914 
	C420.051514,135.325165 418.724487,136.758865 417.286835,136.880035 
	C413.334259,137.213165 409.329193,136.858093 405.356354,137.034271 
	C401.205658,137.218307 397.305115,137.449341 396.658783,131.769211 
	C396.581329,131.088425 394.933868,130.586273 393.826477,129.800446 
	C393.231110,129.277191 392.823425,128.954819 392.415710,128.632446 
	C392.415710,128.632446 392.360474,128.638214 392.311523,128.378326 
	C391.925659,127.972443 391.588745,127.826454 391.251862,127.680458 
	C391.251862,127.680458 391.346893,127.675896 391.243591,127.393410 
	C390.764587,126.755363 390.388824,126.399811 389.816559,125.781143 
	C389.213867,125.363586 388.807739,125.209160 388.305237,125.119965 
	C388.208893,125.185188 388.031372,125.034721 387.798828,124.756691 
	C386.860870,124.347275 386.155518,124.215889 385.197845,124.138535 
	C384.625366,124.076111 384.305176,123.959663 383.884399,123.459641 
	C378.417358,121.781395 373.043793,120.372482 367.893890,124.137161 
	C367.800873,124.216240 367.593781,124.086906 367.204529,124.075882 
	C365.880737,124.629181 364.946198,125.193512 363.802002,125.934341 
	C363.357239,126.383423 363.122192,126.656006 362.887146,126.928581 
	C362.887146,126.928581 362.962921,126.957970 362.683807,126.962616 
	C362.177094,127.233727 361.949524,127.500198 361.721924,127.766663 
	C361.721924,127.766663 361.860565,127.751183 361.524536,127.743652 
	C360.769623,128.144913 360.350739,128.553711 359.931854,128.962524 
	C359.931854,128.962524 359.994202,128.996078 359.774536,128.995071 
	C359.554901,128.994064 359.143494,129.044250 358.791504,129.071442 
	C358.024536,129.814667 357.609558,130.530716 357.159180,131.178986 
	C357.123718,131.111206 357.274994,131.088364 356.950134,131.238037 
	C356.455322,132.055740 356.285400,132.723770 356.132446,133.565979 
	C356.149445,133.740189 355.925690,134.009399 355.541107,134.095581 
	C353.588135,137.194473 352.830505,140.159119 355.864441,143.147980 
	C356.955566,144.377380 357.856140,145.369064 358.756744,146.360748 
	C358.756744,146.360748 358.815857,146.220245 358.758972,146.543915 
	C359.056671,147.020004 359.411285,147.172440 359.765869,147.324860 
	C359.765869,147.324860 359.775940,147.183517 359.755096,147.564056 
	C366.580902,150.225433 373.342621,152.819153 380.295990,154.706970 
	C388.767181,157.006927 397.399567,158.713089 405.962250,160.676086 
	C406.107269,160.785263 406.252289,160.894424 406.904175,161.242065 
	C408.177887,161.796982 408.944763,162.113449 409.711609,162.429916 
	C409.711609,162.429916 409.735168,162.211105 409.797607,162.597015 
	C410.891876,163.722778 411.923706,164.462631 412.955536,165.202484 
	C412.982025,165.527283 413.138062,165.768143 413.758240,166.221313 
	C414.388916,166.722015 414.684967,166.926453 414.981049,167.130890 
	C414.987671,167.462357 415.130737,167.717209 415.731201,168.219666 
	C416.357208,168.736298 416.662292,168.928741 416.967346,169.121185 
	C416.967346,169.121185 416.931702,169.033997 416.983765,169.398468 
	C425.134125,180.958069 426.707611,193.037857 421.945862,205.976608 
	C421.945862,205.976608 422.005768,205.985153 421.752258,206.188629 
	C420.934143,207.571472 420.369568,208.750839 419.804993,209.930206 
	C419.804993,209.930222 419.908569,209.935654 419.636047,210.053345 
	C419.148743,210.736145 418.933990,211.301254 418.719238,211.866364 
	C418.719238,211.866364 418.860077,211.903687 418.576050,211.904907 
	C418.130005,212.245605 417.967987,212.585098 417.805969,212.924591 
	C417.805969,212.924591 417.923431,212.900864 417.567596,212.938675 
	C415.081879,214.988892 412.951965,217.001297 410.543549,219.046051 
	C409.848785,219.614182 409.432495,220.149979 408.853577,220.842407 
	C408.690918,220.999039 408.244324,221.066330 407.998657,221.127716 
	C407.510010,221.413773 407.266998,221.638412 406.894348,221.985626 
	C406.764740,222.108185 406.407959,222.112091 406.134094,222.156219 
	C405.583832,222.431442 405.307465,222.662537 404.872406,223.009460 
	C404.713715,223.125275 404.320831,223.120865 403.895020,223.086487 
	C398.670654,224.115662 393.859924,225.130447 389.093170,226.321442 
	C388.637970,226.435181 388.457672,227.649139 388.149719,228.352325 
	C388.149750,228.352325 388.231750,228.685867 387.838593,229.110046 
	C387.293671,232.337006 386.944580,235.146820 387.044373,237.940613 
	C387.148956,240.869614 386.275665,242.228058 383.107788,242.060562 
	C379.124084,241.849960 375.109650,241.826370 371.129333,242.067154 
	C367.718536,242.273499 366.641998,240.817291 366.988770,237.676468 
	C367.115845,236.525360 367.009247,235.348389 367.008453,234.183228 
	C367.003326,226.701080 361.599640,223.069290 353.806549,225.310120 
	C353.394958,225.223495 352.983398,225.136871 352.135559,224.748383 
	C351.431305,224.214935 351.121796,224.123230 350.770813,224.171432 
	C350.770813,224.171432 350.894135,224.142914 350.794556,223.842133 
	C348.439697,222.710297 346.184479,221.879257 343.929230,221.048218 
	C343.929230,221.048218 343.996216,221.012695 343.872345,220.804947 
	C343.450043,220.416962 343.151611,220.236725 342.853180,220.056503 
	C342.853180,220.056503 342.957031,220.049301 342.850067,219.839310 
	C342.425323,219.453598 342.107544,219.277863 341.789764,219.102142 
	C341.789764,219.102142 341.921326,219.083694 341.826843,218.874603 
	C341.409302,218.484924 341.086212,218.304321 340.763153,218.123734 
	C340.763153,218.123734 340.900787,218.097763 340.814575,217.887833 
	C340.405945,217.492905 340.083496,217.307892 339.761078,217.122894 
	C339.761078,217.122894 339.897858,217.093414 339.815704,216.885483 
	C339.418823,216.483566 339.104095,216.289566 338.789368,216.095581 
	C338.789368,216.095581 338.918579,216.072037 338.835022,215.869659 
	C338.453583,215.465271 338.155762,215.263245 337.857910,215.061218 
	C337.857910,215.061218 337.948639,215.047501 337.864441,214.847672 
	C337.521759,214.432755 337.263306,214.217682 337.004822,214.002594 
	C335.007446,210.654388 332.463165,207.502991 331.167389,203.902283 
	C329.886658,200.343521 329.867279,196.330811 329.223511,192.043747 
	C336.862610,192.043747 344.464508,191.986908 352.062988,192.122299 
	C352.923950,192.137634 354.155823,193.042450 354.558777,193.858994 
	C362.946320,210.856201 381.838287,214.817947 396.368042,202.135254 
	C400.042480,198.731049 401.510132,195.321060 400.454163,190.709167 
	C398.479706,182.086060 392.350769,178.151505 384.619629,176.176117 
	C379.382141,174.837891 373.894318,174.505341 368.612915,173.306839 
	C360.291931,171.418579 352.050415,169.180283 343.775238,167.090164 
	C343.284332,166.876373 342.793427,166.662598 342.026031,165.997192 
	C341.449982,165.391388 341.150391,165.237213 340.850830,165.083038 
	C340.850830,165.083038 340.947815,165.063797 340.907715,164.755585 
	C340.163116,164.039337 339.458588,163.631287 338.754059,163.223236 
	C338.754059,163.223221 338.833435,163.121765 338.768097,162.909576 
	C338.382385,162.529617 338.062042,162.361832 337.741669,162.194046 
	C337.741669,162.194046 337.840546,162.138245 337.757721,161.908386 
	C337.343140,161.489227 337.011414,161.299927 336.679657,161.110641 
z"/>
<path fill="#ECF6F3" opacity="1.000000" stroke="none" 
	d="
M354.045959,225.607544 
	C361.599640,223.069290 367.003326,226.701080 367.008453,234.183228 
	C367.009247,235.348389 367.115845,236.525360 366.988770,237.676468 
	C366.641998,240.817291 367.718536,242.273499 371.129333,242.067154 
	C375.109650,241.826370 379.124084,241.849960 383.107788,242.060562 
	C386.275665,242.228058 387.148956,240.869614 387.044373,237.940613 
	C386.944580,235.146820 387.293671,232.337006 387.765869,229.265640 
	C388.086334,234.775421 388.086334,240.553787 388.086334,246.719666 
	C381.112579,249.369446 373.681274,247.322510 365.601196,248.107300 
	C365.601196,243.278564 365.344208,238.853485 365.674683,234.472717 
	C365.994690,230.230331 365.248413,227.550171 360.205627,227.561707 
	C358.233490,227.566208 356.258850,226.489334 354.045959,225.607544 
M368.892609,244.006821 
	C368.614716,244.113998 368.330566,244.208572 368.064850,244.340271 
	C368.018280,244.363373 368.041351,244.635834 368.045166,244.636139 
	C368.974396,244.712540 369.904755,244.774994 370.835114,244.837799 
	C370.839050,244.615585 370.842987,244.393356 370.846924,244.171143 
	C370.398346,244.111603 369.949799,244.052063 368.892609,244.006821 
M381.189209,244.252090 
	C381.027588,244.369781 380.865997,244.487488 380.704407,244.605194 
	C380.929718,244.580948 381.155029,244.556717 381.189209,244.252090 
M386.187531,244.249802 
	C386.025391,244.368576 385.863281,244.487335 385.701141,244.606110 
	C385.926941,244.581497 386.152771,244.556870 386.187531,244.249802 
z"/>
<path fill="#D9ECE6" opacity="1.000000" stroke="none" 
	d="
M344.006500,167.354843 
	C352.050415,169.180283 360.291931,171.418579 368.612915,173.306839 
	C373.894318,174.505341 379.382141,174.837891 384.619629,176.176117 
	C392.350769,178.151505 398.479706,182.086060 400.454163,190.709167 
	C401.510132,195.321060 400.042480,198.731049 396.638428,201.906311 
	C401.687134,191.464157 398.822205,185.466614 390.363251,180.142548 
	C386.336304,177.607971 380.864441,177.248398 375.977539,176.241089 
	C372.414215,175.506577 368.722107,175.421402 365.115112,174.866653 
	C361.897308,174.371765 358.583130,174.000885 355.554413,172.904327 
	C351.655457,171.492691 347.998779,169.412018 344.006500,167.354843 
z"/>
<path fill="#388D70" opacity="1.000000" stroke="none" 
	d="
M261.871948,199.998093 
	C260.053009,191.900406 258.282043,183.345856 256.412262,174.144669 
	C256.257355,173.326477 256.201202,173.154922 256.145081,172.983383 
	C256.135468,171.907684 256.125854,170.832001 256.087311,168.925201 
	C256.004822,165.743088 255.951248,163.392090 255.897675,161.041092 
	C255.958832,160.273483 256.019989,159.505890 256.106171,157.950623 
	C256.561005,153.734818 256.990875,150.306656 257.420715,146.878510 
	C257.606384,148.813599 257.983063,150.752197 257.947357,152.683197 
	C257.677368,167.284882 257.813721,181.838440 261.787933,196.068054 
	C262.091064,197.153397 261.887787,198.380188 261.871948,199.998093 
z"/>
<path fill="#1B8361" opacity="1.000000" stroke="none" 
	d="
M405.903320,160.336304 
	C397.399567,158.713089 388.767181,157.006927 380.295990,154.706970 
	C373.342621,152.819153 366.580902,150.225433 359.694580,147.600891 
	C371.321228,152.924194 384.282196,153.125763 396.587463,156.090668 
	C399.800293,156.864792 402.765503,158.666687 405.903320,160.336304 
z"/>
<path fill="#D9ECE6" opacity="1.000000" stroke="none" 
	d="
M335.648346,121.122147 
	C334.585938,126.474594 333.382050,132.067932 331.855469,137.571777 
	C329.989838,144.298141 332.546387,150.219360 334.791931,156.240570 
	C335.186127,157.297501 335.561859,158.361313 335.917908,159.815277 
	C327.926300,151.332504 327.638184,130.028946 335.648346,121.122147 
z"/>
<path fill="#1B8361" opacity="1.000000" stroke="none" 
	d="
M422.315918,205.930939 
	C426.707611,193.037857 425.134125,180.958069 416.944000,169.423737 
	C418.818085,171.552933 421.427582,173.743820 422.633240,176.540009 
	C426.805573,186.216476 428.213562,196.098709 422.315918,205.930939 
z"/>
<path fill="#E3F1EC" opacity="1.000000" stroke="none" 
	d="
M257.466492,146.453705 
	C256.990875,150.306656 256.561005,153.734818 256.042145,157.569244 
	C255.968567,153.956070 255.338974,149.803406 256.135651,145.945267 
	C257.721802,138.264084 260.092102,130.744843 262.548706,123.397614 
	C263.020508,124.068008 263.082001,124.499474 263.143494,124.930931 
	C261.266418,131.963593 259.389343,138.996246 257.466492,146.453705 
z"/>
<path fill="#EDEEEE" opacity="1.000000" stroke="none" 
	d="
M394.014130,130.001312 
	C394.933868,130.586273 396.581329,131.088425 396.658783,131.769211 
	C397.305115,137.449341 401.205658,137.218307 405.356354,137.034271 
	C409.329193,136.858093 413.334259,137.213165 417.286835,136.880035 
	C418.724487,136.758865 420.051514,135.325165 421.723877,134.249573 
	C422.342621,135.109787 422.666565,136.210709 422.763580,137.748230 
	C422.296753,138.341827 422.120056,138.551926 421.669434,138.868179 
	C420.880737,138.881226 420.429169,138.841278 419.651733,138.550781 
	C411.949615,138.194153 404.573364,138.088058 397.197113,137.981964 
	C396.204132,135.794891 395.211151,133.607819 394.031616,130.931549 
	C393.845062,130.442368 394.014130,130.001312 394.014130,130.001312 
z"/>
<path fill="#1B8361" opacity="1.000000" stroke="none" 
	d="
M383.984985,123.843216 
	C384.305176,123.959663 384.625366,124.076111 385.455170,124.388443 
	C386.653656,124.734451 387.342499,124.884590 388.031372,125.034729 
	C388.031372,125.034721 388.208893,125.185188 388.489502,125.398056 
	C389.184418,125.755371 389.598755,125.899818 390.013092,126.044258 
	C390.388824,126.399811 390.764587,126.755363 391.244751,127.345856 
	C387.568573,126.724800 383.814819,125.341408 380.000549,125.147125 
	C375.296631,124.907539 370.542297,125.657570 365.360382,125.936279 
	C364.911011,125.892616 364.870483,125.840431 365.085144,125.588440 
	C366.064453,124.919937 366.829102,124.503418 367.593781,124.086899 
	C367.593781,124.086906 367.800873,124.216240 368.313751,124.124680 
	C373.879425,123.969810 378.932190,123.906517 383.984985,123.843216 
z"/>
<path fill="#1B8361" opacity="1.000000" stroke="none" 
	d="
M340.859375,49.939484 
	C349.943024,45.999153 359.808899,44.467972 370.478760,45.087532 
	C362.824799,46.449978 354.713104,47.752285 346.602325,49.060272 
	C344.815002,49.348507 343.030945,49.656857 340.859375,49.939484 
z"/>
<path fill="#ECF6F3" opacity="1.000000" stroke="none" 
	d="
M388.509277,228.259613 
	C388.457672,227.649139 388.637970,226.435181 389.093170,226.321442 
	C393.859924,225.130447 398.670654,224.115662 403.822510,223.293701 
	C404.175842,223.535278 404.237976,223.969788 404.237976,223.969788 
	C399.114929,225.368820 393.991913,226.767868 388.509277,228.259613 
z"/>
<path fill="#1B8361" opacity="1.000000" stroke="none" 
	d="
M359.143494,129.044250 
	C359.143494,129.044250 359.554901,128.994064 359.759827,128.962906 
	C357.623260,134.323471 355.136688,139.704071 358.723663,145.954315 
	C357.856140,145.369064 356.955566,144.377380 355.821716,142.726639 
	C355.700867,139.381516 355.813263,136.695465 355.925690,134.009399 
	C355.925690,134.009399 356.149445,133.740189 356.379974,133.345596 
	C356.832001,132.330124 357.053497,131.709244 357.274963,131.088348 
	C357.274994,131.088364 357.123718,131.111206 357.428833,131.043976 
	C358.203796,130.332581 358.673645,129.688416 359.143494,129.044250 
z"/>
<path fill="#1B8361" opacity="1.000000" stroke="none" 
	d="
M419.977600,138.801315 
	C420.429169,138.841278 420.880737,138.881226 421.910339,138.942810 
	C422.656372,138.956116 422.824310,138.947784 422.992218,138.939468 
	C419.973999,139.299179 416.960205,139.909668 413.936615,139.962494 
	C408.832611,140.051636 403.722412,139.787506 398.773438,139.336685 
	C405.947235,138.934723 412.962402,138.868011 419.977600,138.801315 
z"/>
<path fill="#D9ECE6" opacity="1.000000" stroke="none" 
	d="
M419.651733,138.550766 
	C412.962402,138.868011 405.947235,138.934723 398.465576,139.056427 
	C397.733856,138.905182 397.468597,138.698914 397.200226,138.237305 
	C404.573364,138.088058 411.949615,138.194153 419.651733,138.550766 
z"/>
<path fill="#1B8361" opacity="1.000000" stroke="none" 
	d="
M410.822052,219.013702 
	C412.951965,217.001297 415.081879,214.988892 417.539215,212.885895 
	C415.464752,215.508682 413.062805,218.222031 410.248718,220.876251 
	C409.836578,220.817123 409.706635,220.670044 409.851196,220.444061 
	C410.271179,219.816635 410.546631,219.415176 410.822052,219.013702 
z"/>
<path fill="#1B8361" opacity="1.000000" stroke="none" 
	d="
M263.489014,124.870392 
	C263.082001,124.499474 263.020508,124.068008 262.900208,123.311661 
	C262.841461,122.986786 262.974701,122.542534 263.281494,122.132095 
	C264.030640,120.473404 264.472992,119.225151 264.915344,117.976891 
	C264.915344,117.976891 265.126373,117.708336 265.322876,117.371674 
	C265.616486,116.698242 265.713531,116.361465 265.810608,116.024689 
	C265.810608,116.024689 266.064362,115.678040 266.269714,115.370049 
	C266.475037,115.062057 266.868073,114.879990 266.891968,114.900009 
	C266.915894,114.920029 266.968079,114.954124 266.968079,114.954117 
	C265.923553,118.239365 264.879028,121.524612 263.489014,124.870392 
z"/>
<path fill="#A1ADA4" opacity="1.000000" stroke="none" 
	d="
M301.746826,259.874084 
	C299.876587,258.756622 297.917572,257.315155 295.893738,255.541031 
	C297.771973,256.655579 299.715027,258.102814 301.746826,259.874084 
z"/>
<path fill="#ECF6F3" opacity="1.000000" stroke="none" 
	d="
M344.075317,221.378296 
	C346.184479,221.879257 348.439697,222.710297 350.781067,223.903961 
	C348.651917,223.413849 346.436646,222.561111 344.075317,221.378296 
z"/>
<path fill="#A1ADA4" opacity="1.000000" stroke="none" 
	d="
M306.824463,263.763702 
	C305.616730,263.309692 304.305420,262.540527 302.935822,261.426819 
	C304.158661,261.871063 305.439789,262.659790 306.824463,263.763702 
z"/>
<path fill="#1B8361" opacity="1.000000" stroke="none" 
	d="
M412.938629,164.828644 
	C411.923706,164.462631 410.891876,163.722778 409.749268,162.695862 
	C410.732910,163.090805 411.827301,163.772797 412.938629,164.828644 
z"/>
<path fill="#1B8361" opacity="1.000000" stroke="none" 
	d="
M404.571167,223.972656 
	C404.237976,223.969788 404.175842,223.535278 404.248352,223.328064 
	C404.320831,223.120865 404.713715,223.125275 405.152283,222.987076 
	C405.863220,222.603287 406.135590,222.357681 406.407959,222.112091 
	C406.407959,222.112091 406.764740,222.108185 407.109802,221.995941 
	C407.454865,221.883713 407.885925,221.877777 407.911224,221.904114 
	C407.936523,221.930435 407.988647,221.981598 407.988647,221.981598 
	C406.960541,222.646240 405.932465,223.310883 404.571167,223.972656 
z"/>
<path fill="#1B8361" opacity="1.000000" stroke="none" 
	d="
M420.150146,209.823669 
	C420.369568,208.750839 420.934143,207.571472 421.734009,206.164505 
	C421.477966,207.196976 420.986664,208.457047 420.150146,209.823669 
z"/>
<path fill="#1B8361" opacity="1.000000" stroke="none" 
	d="
M409.710266,162.095306 
	C408.944763,162.113449 408.177887,161.796982 407.175903,161.258789 
	C407.863495,161.278259 408.786224,161.519470 409.710266,162.095306 
z"/>
<path fill="#D9ECE6" opacity="1.000000" stroke="none" 
	d="
M338.879944,163.493134 
	C339.458588,163.631287 340.163116,164.039337 340.882355,164.798035 
	C340.266663,164.686783 339.636261,164.224899 338.879944,163.493134 
z"/>
<path fill="#1B8361" opacity="1.000000" stroke="none" 
	d="
M272.139526,103.549042 
	C272.553284,103.245483 272.945770,103.129517 273.638367,102.950806 
	C273.508728,103.567795 273.079041,104.247528 272.293152,104.939415 
	C271.936920,104.951569 271.883942,104.904678 271.880402,104.679085 
	C271.876862,104.453491 271.850677,104.003014 271.850677,104.003014 
	C271.850677,104.003014 272.118317,103.736641 272.139526,103.549042 
z"/>
<path fill="#A1ADA4" opacity="1.000000" stroke="none" 
	d="
M309.097321,265.450684 
	C308.459351,265.411621 307.741302,265.073822 306.976288,264.410339 
	C307.625305,264.440460 308.321289,264.796204 309.097321,265.450684 
z"/>
<path fill="#A1ADA4" opacity="1.000000" stroke="none" 
	d="
M295.728210,254.873871 
	C295.161469,254.725769 294.536133,254.277313 293.830475,253.533386 
	C294.389984,253.683105 295.029816,254.128311 295.728210,254.873871 
z"/>
<path fill="#1B8361" opacity="1.000000" stroke="none" 
	d="
M393.826477,129.800446 
	C394.014130,130.001312 393.845062,130.442368 393.776978,130.668304 
	C393.229492,130.331375 392.750122,129.768509 392.343262,128.919037 
	C392.823425,128.954819 393.231110,129.277191 393.826477,129.800446 
z"/>
<path fill="#1B8361" opacity="1.000000" stroke="none" 
	d="
M269.918732,108.929619 
	C269.772308,109.506180 269.625885,110.082741 269.169922,110.765244 
	C268.860443,110.871185 268.780121,110.795448 268.807312,110.505341 
	C269.131287,109.737358 269.428070,109.259491 269.772766,108.819298 
	C269.820740,108.856972 269.918732,108.929619 269.918732,108.929619 
z"/>
<path fill="#1B8361" opacity="1.000000" stroke="none" 
	d="
M267.917786,112.923920 
	C267.779175,113.501907 267.640533,114.079895 267.234985,114.806000 
	C266.968079,114.954124 266.915894,114.920029 266.902161,114.602051 
	C267.178650,113.789696 267.468811,113.295319 267.797974,112.832611 
	C267.836945,112.864288 267.917786,112.923920 267.917786,112.923920 
z"/>
<path fill="#1B8361" opacity="1.000000" stroke="none" 
	d="
M408.244324,221.066330 
	C408.244324,221.066330 408.690918,220.999039 409.026154,220.835510 
	C409.361389,220.671982 409.706635,220.670044 409.706635,220.670044 
	C409.706635,220.670044 409.836578,220.817123 409.900177,220.890823 
	C409.507233,221.296539 409.050690,221.628540 408.291412,221.971069 
	C407.988647,221.981598 407.936523,221.930435 407.992340,221.697495 
	C408.048157,221.464554 408.244324,221.066330 408.244324,221.066330 
z"/>
<path fill="#1B8361" opacity="1.000000" stroke="none" 
	d="
M268.899780,110.909904 
	C268.786530,111.524658 268.633942,112.100693 268.199585,112.800323 
	C267.917786,112.923920 267.836945,112.864288 267.837769,112.533539 
	C267.914703,111.809029 267.990814,111.415283 268.066956,111.021538 
	C268.066956,111.021538 267.999634,111.017067 268.202515,110.968544 
	C268.405426,110.920021 268.780121,110.795448 268.780121,110.795448 
	C268.780121,110.795448 268.860443,110.871185 268.899780,110.909904 
z"/>
<path fill="#1B8361" opacity="1.000000" stroke="none" 
	d="
M360.258911,128.951630 
	C360.350739,128.553711 360.769623,128.144913 361.483337,127.687378 
	C361.380768,128.072678 360.983368,128.506729 360.258911,128.951630 
z"/>
<path fill="#1B8361" opacity="1.000000" stroke="none" 
	d="
M419.036102,211.764465 
	C418.933990,211.301254 419.148743,210.736145 419.621277,210.003632 
	C419.703674,210.445023 419.528320,211.053802 419.036102,211.764465 
z"/>
<path fill="#1B8361" opacity="1.000000" stroke="none" 
	d="
M269.669464,107.995651 
	C269.669464,107.995651 269.968842,107.601875 270.195129,107.278389 
	C270.421387,106.954903 270.812653,106.823311 270.843140,106.850693 
	C270.873627,106.878075 270.939453,106.926895 270.939453,106.926895 
	C270.786255,107.506683 270.633057,108.086464 270.199280,108.797928 
	C269.918732,108.929619 269.820740,108.856972 269.762634,108.622543 
	C269.704559,108.388123 269.669464,107.995651 269.669464,107.995651 
z"/>
<path fill="#1B8361" opacity="1.000000" stroke="none" 
	d="
M271.962036,104.976486 
	C271.819733,105.560600 271.652313,106.119804 271.212158,106.802948 
	C270.939453,106.926895 270.873627,106.878075 270.882080,106.564987 
	C271.221680,105.802834 271.552826,105.353760 271.883942,104.904678 
	C271.883942,104.904678 271.936920,104.951569 271.962036,104.976486 
z"/>
<path fill="#1B8361" opacity="1.000000" stroke="none" 
	d="
M363.201904,126.934746 
	C363.122192,126.656006 363.357239,126.383423 364.016724,125.955460 
	C364.441132,125.800064 364.870483,125.840431 364.870483,125.840431 
	C364.870483,125.840431 364.911011,125.892616 364.928467,125.920135 
	C364.469482,126.278748 363.993073,126.609833 363.201904,126.934746 
z"/>
<path fill="#A1ADA4" opacity="1.000000" stroke="none" 
	d="
M288.728302,247.915680 
	C288.427643,248.112289 288.169312,247.938751 287.916809,247.418518 
	C288.125549,247.348480 288.408234,247.506378 288.728302,247.915680 
z"/>
<path fill="#D9ECE6" opacity="1.000000" stroke="none" 
	d="
M336.804504,161.364838 
	C337.011414,161.299927 337.343140,161.489227 337.754761,161.965073 
	C337.532837,162.040756 337.231110,161.829880 336.804504,161.364838 
z"/>
<path fill="#D9ECE6" opacity="1.000000" stroke="none" 
	d="
M337.841797,162.443146 
	C338.062042,162.361832 338.382385,162.529617 338.768433,162.973999 
	C338.536743,163.064468 338.239319,162.878357 337.841797,162.443146 
z"/>
<path fill="#1B8361" opacity="1.000000" stroke="none" 
	d="
M416.854370,168.871429 
	C416.662292,168.928741 416.357208,168.736298 415.948547,168.284851 
	C416.143768,168.224457 416.442566,168.423065 416.854370,168.871429 
z"/>
<path fill="#1B8361" opacity="1.000000" stroke="none" 
	d="
M414.864532,166.882568 
	C414.684967,166.926453 414.388916,166.722015 413.975891,166.269394 
	C414.155304,166.225540 414.451660,166.429901 414.864532,166.882568 
z"/>
<path fill="#ECF6F3" opacity="1.000000" stroke="none" 
	d="
M341.891357,219.360474 
	C342.107544,219.277863 342.425323,219.453598 342.843384,219.890930 
	C342.626801,219.974655 342.309875,219.796753 341.891357,219.360474 
z"/>
<path fill="#D9ECE6" opacity="1.000000" stroke="none" 
	d="
M423.022217,138.703033 
	C422.824310,138.947784 422.656372,138.956116 422.247498,138.889801 
	C422.120056,138.551926 422.296753,138.341827 422.725647,138.097504 
	C422.914673,138.010178 423.052216,138.466583 423.022217,138.703033 
z"/>
<path fill="#1B8361" opacity="1.000000" stroke="none" 
	d="
M418.078064,212.835236 
	C417.967987,212.585098 418.130005,212.245605 418.568939,211.832397 
	C418.680603,212.087738 418.515381,212.416809 418.078064,212.835236 
z"/>
<path fill="#ECF6F3" opacity="1.000000" stroke="none" 
	d="
M337.066864,214.257507 
	C337.263306,214.217682 337.521759,214.432755 337.860352,214.893372 
	C337.669952,214.930069 337.399445,214.721237 337.066864,214.257507 
z"/>
<path fill="#ECF6F3" opacity="1.000000" stroke="none" 
	d="
M337.946899,215.322464 
	C338.155762,215.263245 338.453583,215.465271 338.829773,215.935120 
	C338.617371,215.996536 338.326599,215.790115 337.946899,215.322464 
z"/>
<path fill="#ECF6F3" opacity="1.000000" stroke="none" 
	d="
M338.880127,216.362900 
	C339.104095,216.289566 339.418823,216.483566 339.808777,216.955093 
	C339.579620,217.031845 339.275269,216.831039 338.880127,216.362900 
z"/>
<path fill="#ECF6F3" opacity="1.000000" stroke="none" 
	d="
M339.851471,217.391571 
	C340.083496,217.307892 340.405945,217.492905 340.805603,217.957275 
	C340.569183,218.044510 340.255524,217.852371 339.851471,217.391571 
z"/>
<path fill="#ECF6F3" opacity="1.000000" stroke="none" 
	d="
M340.857056,218.389786 
	C341.086212,218.304321 341.409302,218.484924 341.817932,218.940430 
	C341.586029,219.028839 341.268494,218.842346 340.857056,218.389786 
z"/>
<path fill="#ECF6F3" opacity="1.000000" stroke="none" 
	d="
M342.965515,220.294937 
	C343.151611,220.236725 343.450043,220.416962 343.858093,220.840057 
	C343.671082,220.899734 343.374481,220.716553 342.965515,220.294937 
z"/>
<path fill="#D9ECE6" opacity="1.000000" stroke="none" 
	d="
M340.966736,165.316147 
	C341.150391,165.237213 341.449982,165.391388 341.872070,165.772202 
	C341.690643,165.848984 341.386627,165.699127 340.966736,165.316147 
z"/>
<path fill="#1B8361" opacity="1.000000" stroke="none" 
	d="
M359.732025,147.025040 
	C359.411285,147.172440 359.056671,147.020004 358.684174,146.558533 
	C359.010223,146.408066 359.354218,146.566635 359.732025,147.025040 
z"/>
<path fill="#ECF6F3" opacity="1.000000" stroke="none" 
	d="
M350.883057,224.404663 
	C351.121796,224.123230 351.431305,224.214935 351.834595,224.653717 
	C351.645050,224.786575 351.320160,224.712234 350.883057,224.404663 
z"/>
<path fill="#1B8361" opacity="1.000000" stroke="none" 
	d="
M391.275970,127.979553 
	C391.588745,127.826454 391.925659,127.972443 392.298431,128.402802 
	C391.989563,128.550995 391.644836,128.414810 391.275970,127.979553 
z"/>
<path fill="#A1ADA4" opacity="1.000000" stroke="none" 
	d="
M283.597931,241.985687 
	C283.302429,242.140869 283.074799,241.956238 282.854492,241.463654 
	C283.155670,241.245895 283.423676,241.409286 283.597931,241.985687 
z"/>
<path fill="#1B8361" opacity="1.000000" stroke="none" 
	d="
M362.005432,127.749992 
	C361.949524,127.500198 362.177094,127.233727 362.684540,126.921997 
	C362.739227,127.162254 362.514069,127.447784 362.005432,127.749992 
z"/>
<path fill="#A1ADA4" opacity="1.000000" stroke="none" 
	d="
M292.682617,251.974274 
	C292.394745,252.160187 292.137482,251.987366 291.859497,251.491394 
	C292.060791,251.420776 292.352295,251.569870 292.682617,251.974274 
z"/>
<path fill="#EDEEEE" opacity="1.000000" stroke="none" 
	d="
M239.105225,202.386124 
	C241.056213,207.206085 242.998627,212.403091 244.910309,218.037064 
	C242.951920,213.237091 241.024277,208.000122 239.105225,202.386124 
z"/>
<path fill="#EDEEEE" opacity="1.000000" stroke="none" 
	d="
M234.065063,175.414566 
	C234.893127,178.519684 235.702347,182.029434 236.206726,185.782623 
	C235.283356,182.623779 234.664795,179.221497 234.065063,175.414566 
z"/>
<path fill="#EDEEEE" opacity="1.000000" stroke="none" 
	d="
M245.035797,219.334167 
	C245.805206,220.249863 246.581421,221.495316 247.085480,222.915314 
	C246.223083,221.947876 245.632828,220.805908 245.035797,219.334167 
z"/>
<path fill="#EDEEEE" opacity="1.000000" stroke="none" 
	d="
M237.023956,193.334869 
	C237.491898,193.919556 237.919128,194.833023 238.060303,195.925537 
	C237.510574,195.290939 237.246902,194.477310 237.023956,193.334869 
z"/>
<path fill="#EDEEEE" opacity="1.000000" stroke="none" 
	d="
M236.062012,188.336761 
	C236.501022,188.939972 236.889297,189.869812 236.983795,190.974182 
	C236.463760,190.320267 236.237518,189.491821 236.062012,188.336761 
z"/>
<path fill="#EDEEEE" opacity="1.000000" stroke="none" 
	d="
M238.070282,198.300674 
	C238.488556,198.621338 238.865173,199.231537 238.977005,199.989685 
	C238.484375,199.621826 238.256516,199.106018 238.070282,198.300674 
z"/>
<path fill="#EDEEEE" opacity="1.000000" stroke="none" 
	d="
M248.100067,226.317535 
	C248.327301,226.314774 248.562180,226.609207 248.840103,227.191010 
	C248.624680,227.190491 248.366196,226.902603 248.100067,226.317535 
z"/>
<path fill="#EDEEEE" opacity="1.000000" stroke="none" 
	d="
M252.069000,234.287476 
	C252.410461,234.131424 252.651672,234.349655 252.881042,234.903549 
	C252.658417,234.947968 252.358276,234.755478 252.069000,234.287476 
z"/>
<path fill="#E3F1EC" opacity="1.000000" stroke="none" 
	d="
M255.632324,161.315765 
	C255.951248,163.392090 256.004822,165.743088 255.997910,168.530670 
	C255.747269,166.508316 255.557114,164.049377 255.632324,161.315765 
z"/>
<path fill="#E3F1EC" opacity="1.000000" stroke="none" 
	d="
M264.559937,118.058258 
	C264.472992,119.225151 264.030640,120.473404 263.305176,121.901405 
	C263.416229,120.767311 263.810394,119.453468 264.559937,118.058258 
z"/>
<path fill="#E3F1EC" opacity="1.000000" stroke="none" 
	d="
M267.736877,111.173363 
	C267.990814,111.415283 267.914703,111.809029 267.798798,112.501862 
	C267.468811,113.295319 267.178650,113.789696 266.878265,114.582031 
	C266.868073,114.879990 266.475037,115.062057 266.279602,115.155472 
	C266.525024,113.940994 266.965912,112.633087 267.736877,111.173363 
z"/>
<path fill="#E3F1EC" opacity="1.000000" stroke="none" 
	d="
M271.880402,104.679092 
	C271.552826,105.353760 271.221680,105.802834 270.851593,106.537613 
	C270.812653,106.823311 270.421387,106.954903 270.230591,107.033607 
	C270.417267,106.119972 270.794769,105.127632 271.511475,104.069153 
	C271.850677,104.003014 271.876862,104.453491 271.880402,104.679092 
z"/>
<path fill="#E3F1EC" opacity="1.000000" stroke="none" 
	d="
M269.350647,108.078522 
	C269.669464,107.995651 269.704559,108.388123 269.714691,108.584869 
	C269.428070,109.259491 269.131287,109.737358 268.807312,110.505341 
	C268.780121,110.795448 268.405426,110.920021 268.222961,110.995377 
	C268.370941,110.100952 268.701385,109.131172 269.350647,108.078522 
z"/>
<path fill="#000000" opacity="1.000000" stroke="none" 
	d="
M273.040955,95.424332 
	C273.060608,95.103386 273.516296,94.994240 273.746979,94.956223 
	C273.724640,95.824348 273.471588,96.730476 273.045929,97.326813 
	C272.922638,96.593109 272.971985,96.169189 273.040955,95.424332 
z"/>
<path fill="#E3F1EC" opacity="1.000000" stroke="none" 
	d="
M265.609009,116.196671 
	C265.713531,116.361465 265.616486,116.698242 265.305969,117.201752 
	C265.197510,117.035210 265.302460,116.701927 265.609009,116.196671 
z"/>
<path fill="#E3F1EC" opacity="1.000000" stroke="none" 
	d="
M255.951584,173.077835 
	C256.201202,173.154922 256.257355,173.326477 256.272217,173.765656 
	C256.073334,173.746262 255.915710,173.459274 255.951584,173.077835 
z"/>
<path fill="#ECF6F3" opacity="1.000000" stroke="none" 
	d="
M383.884399,123.459641 
	C378.932190,123.906517 373.879425,123.969810 368.406769,124.045593 
	C373.043793,120.372482 378.417358,121.781395 383.884399,123.459641 
z"/>
<path fill="#ECF6F3" opacity="1.000000" stroke="none" 
	d="
M355.541107,134.095581 
	C355.813263,136.695465 355.700867,139.381516 355.631226,142.488922 
	C352.830505,140.159119 353.588135,137.194473 355.541107,134.095581 
z"/>
<path fill="#ECF6F3" opacity="1.000000" stroke="none" 
	d="
M365.085144,125.588440 
	C364.870483,125.840431 364.441132,125.800064 364.226410,125.778946 
	C364.946198,125.193512 365.880737,124.629181 367.204529,124.075874 
	C366.829102,124.503418 366.064453,124.919937 365.085144,125.588440 
z"/>
<path fill="#ECF6F3" opacity="1.000000" stroke="none" 
	d="
M409.851196,220.444061 
	C409.706635,220.670044 409.361389,220.671982 409.188812,220.678879 
	C409.432495,220.149979 409.848785,219.614182 410.543549,219.046051 
	C410.546631,219.415176 410.271179,219.816635 409.851196,220.444061 
z"/>
<path fill="#ECF6F3" opacity="1.000000" stroke="none" 
	d="
M358.791504,129.071426 
	C358.673645,129.688416 358.203796,130.332581 357.464294,131.111755 
	C357.609558,130.530716 358.024536,129.814667 358.791504,129.071426 
z"/>
<path fill="#ECF6F3" opacity="1.000000" stroke="none" 
	d="
M356.950134,131.238037 
	C357.053497,131.709244 356.832001,132.330124 356.362976,133.171387 
	C356.285400,132.723770 356.455322,132.055740 356.950134,131.238037 
z"/>
<path fill="#ECF6F3" opacity="1.000000" stroke="none" 
	d="
M387.798828,124.756699 
	C387.342499,124.884590 386.653656,124.734451 385.707458,124.334412 
	C386.155518,124.215889 386.860870,124.347275 387.798828,124.756699 
z"/>
<path fill="#ECF6F3" opacity="1.000000" stroke="none" 
	d="
M389.816559,125.781143 
	C389.598755,125.899818 389.184418,125.755371 388.585815,125.332825 
	C388.807739,125.209160 389.213867,125.363586 389.816559,125.781143 
z"/>
<path fill="#ECF6F3" opacity="1.000000" stroke="none" 
	d="
M407.998657,221.127716 
	C408.244324,221.066330 408.048157,221.464554 407.967041,221.671173 
	C407.885925,221.877777 407.454865,221.883713 407.239441,221.873383 
	C407.266998,221.638412 407.510010,221.413773 407.998657,221.127716 
z"/>
<path fill="#ECF6F3" opacity="1.000000" stroke="none" 
	d="
M406.134094,222.156204 
	C406.135590,222.357681 405.863220,222.603287 405.310974,222.871262 
	C405.307465,222.662537 405.583832,222.431442 406.134094,222.156204 
z"/>
<path fill="#E7E7E3" opacity="1.000000" stroke="none" 
	d="
M369.196899,243.999664 
	C369.949799,244.052063 370.398346,244.111603 370.846924,244.171143 
	C370.842987,244.393356 370.839050,244.615585 370.835114,244.837799 
	C369.904755,244.774994 368.974396,244.712540 368.045166,244.636139 
	C368.041351,244.635834 368.018280,244.363373 368.064850,244.340271 
	C368.330566,244.208572 368.614716,244.113998 369.196899,243.999664 
z"/>
<path fill="#E7E7E3" opacity="1.000000" stroke="none" 
	d="
M381.284790,244.392288 
	C381.155029,244.556717 380.929718,244.580948 380.704407,244.605194 
	C380.865997,244.487488 381.027588,244.369781 381.284790,244.392288 
z"/>
<path fill="#E7E7E3" opacity="1.000000" stroke="none" 
	d="
M386.283051,244.391022 
	C386.152771,244.556870 385.926941,244.581497 385.701141,244.606110 
	C385.863281,244.487335 386.025391,244.368576 386.283051,244.391022 
z"/>
</svg>